<svg id="Layer_1" data-name="Layer 1" xmlns="http://www.w3.org/2000/svg" viewBox="0 0 197.4895 236.49289"><defs><style>.cls-1{fill:#a663ff;}.cls-2{fill:#fff;}.cls-3{fill:#fd0;}.cls-3,.cls-4{stroke:#231f20;stroke-miterlimit:10;stroke-width:6px;}.cls-4{fill:none;}</style></defs><title>noon</title><path class="cls-1" d="M185.75844,185.25157a74.02306,74.02306,0,0,0,3.73376-23.226c0-44.74634-39.98779-81.02044-89.31524-81.02044s-89.31519,36.2741-89.31519,81.02044a74.08911,74.08911,0,0,0,4.61352,25.75294A31.82243,31.82243,0,0,0,3.50423,206.27335C.66511,220.36122,10.20405,231.78163,24.81,231.78163c9.69141,0,19.17444-5.03093,25.291-12.52993,3.09405,7.499,10.54931,12.52993,20.24072,12.52993s19.17444-5.03093,25.291-12.52993c3.094,7.499,10.54932,12.52993,20.24073,12.52993s19.17444-5.03093,25.291-12.52993c3.094,7.499,10.54932,12.52993,20.24073,12.52993,14.60589,0,28.74792-11.42041,31.587-25.50828C194.75044,197.549,191.75807,189.8511,185.75844,185.25157Z"/><ellipse class="cls-2" cx="92.631" cy="150.17181" rx="20.23076" ry="21.5"/><ellipse class="cls-2" cx="133.11175" cy="150.17181" rx="20.23076" ry="21.5"/><path d="M133.11175,125.2103c-8.67834,0-16.2561,5.16833-20.25,12.80273-3.99389-7.6344-11.57165-12.80273-20.25-12.80273-12.82031,0-23.25,11.27148-23.25,25.125s10.42969,25.125,23.25,25.125c8.67835,0,16.25611-5.16834,20.25-12.80274,3.9939,7.6344,11.57166,12.80274,20.25,12.80274,12.82032,0,23.25-11.27149,23.25-25.125S145.93207,125.2103,133.11175,125.2103Zm-40.5,44.25c-9.51171,0-17.25-8.5791-17.25-19.125s7.73829-19.125,17.25-19.125a16.48773,16.48773,0,0,1,12.70392,6.23224,9.79907,9.79907,0,1,0,4.52814,12.49987c.00244.132.01794.26026.01794.39289C109.86175,160.8812,102.12347,169.4603,92.61175,169.4603Zm40.5,0c-9.51171,0-17.25-8.5791-17.25-19.125s7.73829-19.125,17.25-19.125a16.48773,16.48773,0,0,1,12.70392,6.23224,9.79907,9.79907,0,1,0,4.52814,12.49987c.00244.132.01794.26026.01794.39289C150.36175,160.8812,142.62347,169.4603,133.11175,169.4603Z"/><path d="M57.622,146.31626c-10.06726-3.27509-21.12958,2.89618-24.66242,13.75439l-6.31237,19.4018a3,3,0,1,0,5.70556,1.85632L38.6651,161.927c2.50946-7.71277,10.178-12.15985,17.10053-9.90515,6.91937,2.2511,10.50958,10.35223,8.0025,18.05835L59.925,181.893a3,3,0,1,0,5.70557,1.85626l3.84313-11.81286C73.00415,161.08439,67.68775,149.59128,57.622,146.31626Z"/><path d="M189.21954,184.24985c.46863-1.5581.8772-3.12957,1.24585-4.70874l3.34168-10.2713a21.251,21.251,0,0,0-2.04993-17.86517c-5.75378-41.33337-44.62939-73.39942-91.58056-73.39942-50.90284,0-92.31495,37.69141-92.31495,84.02051a77.0079,77.0079,0,0,0,4.083,24.76807A34.17469,34.17469,0,0,0,.56329,205.68052c-1.53808,7.63428.09815,14.87353,4.6084,20.3833,4.60254,5.62109,11.57666,8.71777,19.63819,8.71777A35.8325,35.8325,0,0,0,49.46271,224.3812c4.38721,6.50781,12.02734,10.40039,20.8789,10.40039A35.82521,35.82521,0,0,0,94.994,224.3812c4.38672,6.50781,12.02734,10.40039,20.87988,10.40039a35.83318,35.83318,0,0,0,24.65235-10.40039c4.38671,6.50781,12.02734,10.40039,20.8789,10.40039,15.93652,0,31.42578-12.52246,34.52735-27.91553C197.70294,198.08579,195.202,189.78989,189.21954,184.24985Zm.832,21.43067c-2.56739,12.73828-15.418,23.10107-28.64649,23.10107-8.17969,0-14.71-3.99023-17.4668-10.67431l-1.91894-4.64991-3.17871,3.89746c-5.75,7.04883-14.54981,11.42676-22.9668,11.42676-8.18066,0-14.71094-3.99023-17.46777-10.67431l-1.91895-4.65039-3.17968,3.89843c-5.74805,7.04834-14.54786,11.42627-22.96583,11.42627-8.17968,0-14.70947-3.99023-17.46728-10.67431l-1.919-4.64991-3.17919,3.898c-5.749,7.04834-14.54932,11.42627-22.96631,11.42627-6.22852,0-11.5542-2.31543-14.99512-6.51855-3.34912-4.0918-4.5459-9.55957-3.36963-15.397A28.99979,28.99979,0,0,1,17.31036,190.1522L19.053,188.805l-.76367-2.06641a71.07693,71.07693,0,0,1-4.42774-24.71289c0-43.02051,38.72071-78.02051,86.315-78.02051,40.97815,0,75.358,25.95185,84.13061,60.62275a17.82324,17.82324,0,0,0-2.35193-.97834c-10.06726-3.27514-21.12951,2.89612-24.66247,13.7544l-6.31226,19.40173a3,3,0,1,0,5.70557,1.85633l6.31225-19.4018c2.50952-7.71277,10.1781-12.15985,17.10059-9.90509,6.91943,2.251,10.50952,10.35217,8.00256,18.05829l-4.67029,15.74127c-.45312,1.11926-.86132,2.18964-1.18823,3.18152l1.69043,1.29639C189.22443,191.68931,191.51154,198.43589,190.05158,205.68052Z"/><path class="cls-3" d="M153.80144,83.109H141.57183L106.01,7.19083a7.27811,7.27811,0,0,0-13.18174,0L57.26649,83.109H45.03683a7.8836,7.8836,0,0,0-7.88357,7.88357v.00005a7.8836,7.8836,0,0,0,7.88357,7.88357H153.80144a7.88362,7.88362,0,0,0,7.88367-7.88357v-.00005A7.88362,7.88362,0,0,0,153.80144,83.109Z"/><polygon class="cls-2" points="115.684 22.373 88.279 22.373 80.867 38.197 123.097 38.197 115.684 22.373"/><polygon class="cls-2" points="128.127 48.936 75.837 48.936 68.424 64.76 135.54 64.76 128.127 48.936"/><path class="cls-4" d="M153.80144,83.109H141.57183L106.01,7.19083a7.27811,7.27811,0,0,0-13.18174,0L57.26649,83.109H45.03683a7.8836,7.8836,0,0,0-7.88357,7.88357v.00005a7.8836,7.8836,0,0,0,7.88357,7.88357H153.80144a7.88362,7.88362,0,0,0,7.88367-7.88357v-.00005A7.88362,7.88362,0,0,0,153.80144,83.109Z"/></svg>