<svg id="Layer_1" data-name="Layer 1" xmlns="http://www.w3.org/2000/svg" viewBox="0 0 197.4895 236.49289"><defs><style>.cls-1{fill:#fd0;}.cls-2{fill:#fff;}.cls-3{fill:#a663ff;}.cls-4{fill:none;stroke:#231f20;stroke-miterlimit:10;stroke-width:6px;}</style></defs><title>noon</title><path class="cls-1" d="M2.49788,206.27335c2.83911,14.08787,16.98114,25.50828,31.587,25.50828,9.69141,0,17.14673-5.03093,20.24072-12.52993,6.11658,7.499,15.59961,12.52993,25.291,12.52993s17.14673-5.03093,20.24072-12.52993c6.11658,7.499,15.59961,12.52993,25.291,12.52993s17.14667-5.03093,20.24072-12.52993c6.11658,7.499,15.59961,12.52993,25.291,12.52993,14.60589,0,24.14483-11.42041,21.30572-25.50828a31.82239,31.82239,0,0,0-11.97107-18.49483,74.08912,74.08912,0,0,0,4.61353-25.75294c0-44.74634-39.9878-81.02044-89.31519-81.02044S5.99788,117.27924,5.99788,162.02558a74.02306,74.02306,0,0,0,3.73376,23.226C3.732,189.8511.73964,197.549,2.49788,206.27335Z"/><ellipse class="cls-2" cx="102.85908" cy="150.17181" rx="20.23076" ry="21.5"/><ellipse class="cls-2" cx="62.37832" cy="150.17181" rx="20.23076" ry="21.5"/><path d="M39.12832,150.3353c0,13.85351,10.42969,25.125,23.25,25.125,8.67835,0,16.25611-5.16834,20.25-12.80274,3.9939,7.6344,11.57166,12.80274,20.25,12.80274,12.82032,0,23.25-11.27149,23.25-25.125s-10.42968-25.125-23.25-25.125c-8.67834,0-16.2561,5.16833-20.25,12.80273-3.99389-7.6344-11.57165-12.80273-20.25-12.80273C49.558,125.2103,39.12832,136.48178,39.12832,150.3353Zm46.5,0c0-.13263.01551-.26093.01795-.39289a9.81821,9.81821,0,1,0,4.52813-12.49987,16.48776,16.48776,0,0,1,12.70392-6.23224c9.51172,0,17.25,8.5791,17.25,19.125s-7.73828,19.125-17.25,19.125S85.62832,160.8812,85.62832,150.3353Zm-40.5,0c0-.13263.01551-.26093.01795-.39289a9.81821,9.81821,0,1,0,4.52813-12.49987,16.48776,16.48776,0,0,1,12.70392-6.23224c9.51172,0,17.25,8.5791,17.25,19.125s-7.73828,19.125-17.25,19.125S45.12832,160.8812,45.12832,150.3353Z"/><path d="M139.86813,146.31626c10.06726-3.27509,21.12958,2.89618,24.66241,13.75439l6.31238,19.4018a3,3,0,1,1-5.70556,1.85632L158.825,161.927c-2.50946-7.71277-10.178-12.15985-17.10053-9.90515-6.91937,2.2511-10.50958,10.35223-8.0025,18.05835l3.84314,11.81286a3,3,0,1,1-5.70557,1.85626l-3.84314-11.81286C124.48593,161.08439,129.80233,149.59128,139.86813,146.31626Z"/><path d="M1.55764,206.86606c3.10157,15.39307,18.59082,27.91553,34.52735,27.91553,8.85156,0,16.49218-3.89258,20.8789-10.40039a35.83316,35.83316,0,0,0,24.65235,10.40039c8.85254,0,16.49316-3.89258,20.87988-10.40039a35.82519,35.82519,0,0,0,24.65234,10.40039c8.85157,0,16.4917-3.89258,20.87891-10.40039a35.8325,35.8325,0,0,0,24.65283,10.40039c8.06153,0,15.03565-3.09668,19.63819-8.71777,4.51025-5.50977,6.14648-12.749,4.60839-20.3833a34.17462,34.17462,0,0,0-11.38134-18.88672,77.00789,77.00789,0,0,0,4.083-24.76807c0-46.3291-41.41211-84.02051-92.31494-84.02051-46.95117,0-85.82678,32.06605-91.58056,73.39942A21.251,21.251,0,0,0,3.683,169.26981l3.34167,10.2713c.36866,1.57917.77723,3.15064,1.24585,4.70874C2.28811,189.78989-.21286,198.08579,1.55764,206.86606Zm11.999-19.23339,1.69043-1.29639c-.32691-.99188-.73511-2.06226-1.18824-3.18152L9.38858,167.41349c-2.507-7.70612,1.08313-15.80725,8.00256-18.05829,6.92248-2.25476,14.59106,2.19232,17.10059,9.90509l6.31225,19.4018a3,3,0,1,0,5.70557-1.85633L40.19729,157.404c-3.533-10.85828-14.59521-17.02954-24.66247-13.7544a17.82268,17.82268,0,0,0-2.35193.97834c8.77258-34.6709,43.15246-60.62275,84.13061-60.62275,47.59424,0,86.31494,35,86.31494,78.02051a71.07692,71.07692,0,0,1-4.42773,24.71289L178.437,188.805l1.74267,1.34717A28.99975,28.99975,0,0,1,191.045,206.86606c1.17627,5.83741-.02051,11.30518-3.36963,15.397-3.44092,4.20312-8.7666,6.51855-14.99512,6.51855-8.417,0-17.21728-4.37793-22.96631-11.42627l-3.1792-3.898-1.91894,4.64991c-2.75781,6.68408-9.2876,10.67431-17.46729,10.67431-8.418,0-17.21777-4.37793-22.96582-11.42627l-3.17968-3.89843L99.084,218.10728c-2.75684,6.68408-9.28711,10.67431-17.46777,10.67431-8.417,0-17.2168-4.37793-22.9668-11.42676l-3.17871-3.89746-1.919,4.64991c-2.75683,6.68408-9.28711,10.67431-17.46679,10.67431-13.22852,0-26.0791-10.36279-28.64649-23.10107C5.97854,198.43589,8.26565,191.68931,13.55667,187.63267Z"/><path class="cls-3" d="M153.80144,83.109H141.57183L106.01,7.19083a7.27811,7.27811,0,0,0-13.18174,0L57.26649,83.109H45.03683a7.8836,7.8836,0,0,0-7.88357,7.88357v.00005a7.8836,7.8836,0,0,0,7.88357,7.88357H153.80144a7.88362,7.88362,0,0,0,7.88367-7.88357v-.00005A7.88362,7.88362,0,0,0,153.80144,83.109Z"/><polygon class="cls-2" points="115.684 22.373 88.279 22.373 80.867 38.197 123.097 38.197 115.684 22.373"/><polygon class="cls-2" points="128.127 48.936 75.837 48.936 68.424 64.76 135.54 64.76 128.127 48.936"/><path class="cls-4" d="M153.80144,83.109H141.57183L106.01,7.19083a7.27811,7.27811,0,0,0-13.18174,0L57.26649,83.109H45.03683a7.8836,7.8836,0,0,0-7.88357,7.88357v.00005a7.8836,7.8836,0,0,0,7.88357,7.88357H153.80144a7.88362,7.88362,0,0,0,7.88367-7.88357v-.00005A7.88362,7.88362,0,0,0,153.80144,83.109Z"/></svg>