<svg id="Layer_1" data-name="Layer 1" xmlns="http://www.w3.org/2000/svg" viewBox="0 0 197.489 236.493"><defs><style>.cls-2{fill:#fff}</style></defs><path d="M2.498 206.273c2.839 14.088 16.981 25.509 31.587 25.509 9.691 0 17.147-5.031 20.24-12.53 6.117 7.499 15.6 12.53 25.292 12.53s17.146-5.031 20.24-12.53c6.117 7.499 15.6 12.53 25.291 12.53s17.147-5.031 20.241-12.53c6.117 7.499 15.6 12.53 25.291 12.53 14.606 0 24.145-11.42 21.306-25.509a31.822 31.822 0 00-11.971-18.494 74.09 74.09 0 004.613-25.753c0-44.747-39.988-81.02-89.315-81.02s-89.315 36.273-89.315 81.02a74.023 74.023 0 003.734 23.226c-6 4.6-8.992 12.297-7.234 21.021z" fill="#fd0"/><ellipse class="cls-2" cx="102.859" cy="150.172" rx="20.231" ry="21.5"/><ellipse class="cls-2" cx="62.378" cy="150.172" rx="20.231" ry="21.5"/><path d="M39.128 150.335c0 13.854 10.43 25.125 23.25 25.125 8.679 0 16.256-5.168 20.25-12.802 3.994 7.634 11.572 12.802 20.25 12.802 12.82 0 23.25-11.271 23.25-25.125s-10.43-25.125-23.25-25.125c-8.678 0-16.256 5.169-20.25 12.803-3.994-7.634-11.571-12.803-20.25-12.803-12.82 0-23.25 11.272-23.25 25.125zm46.5 0c0-.132.016-.26.018-.393a9.818 9.818 0 104.528-12.5 16.488 16.488 0 0112.704-6.232c9.512 0 17.25 8.58 17.25 19.125s-7.738 19.125-17.25 19.125-17.25-8.579-17.25-19.125zm-40.5 0c0-.132.016-.26.018-.393a9.818 9.818 0 104.528-12.5 16.488 16.488 0 0112.704-6.232c9.512 0 17.25 8.58 17.25 19.125s-7.738 19.125-17.25 19.125-17.25-8.579-17.25-19.125zM139.868 146.316c10.067-3.275 21.13 2.896 24.663 13.755l6.312 19.401a3 3 0 11-5.706 1.857l-6.312-19.402c-2.51-7.713-10.178-12.16-17.1-9.905-6.92 2.251-10.51 10.352-8.003 18.058l3.843 11.813a3 3 0 11-5.705 1.856l-3.844-11.813c-3.53-10.852 1.786-22.345 11.852-25.62z"/><path d="M1.558 206.866c3.101 15.393 18.59 27.916 34.527 27.916 8.852 0 16.492-3.893 20.879-10.4a35.833 35.833 0 0024.652 10.4c8.853 0 16.493-3.893 20.88-10.4a35.825 35.825 0 0024.652 10.4c8.852 0 16.492-3.893 20.88-10.4a35.833 35.833 0 0024.652 10.4c8.062 0 15.036-3.097 19.638-8.718 4.51-5.51 6.147-12.75 4.609-20.383a34.175 34.175 0 00-11.382-18.887 77.008 77.008 0 004.083-24.768c0-46.33-41.412-84.02-92.314-84.02-46.952 0-85.827 32.065-91.581 73.399a21.251 21.251 0 00-2.05 17.865l3.342 10.271c.368 1.58.777 3.15 1.246 4.709-5.983 5.54-8.484 13.836-6.713 22.616zm11.999-19.233l1.69-1.297a52.13 52.13 0 00-1.188-3.181l-4.67-15.742c-2.507-7.706 1.083-15.807 8.002-18.058 6.923-2.255 14.591 2.193 17.1 9.905l6.313 19.402a3 3 0 105.706-1.856l-6.313-19.402c-3.533-10.858-14.595-17.03-24.662-13.754a17.823 17.823 0 00-2.352.978c8.772-34.671 43.152-60.623 84.13-60.623 47.595 0 86.315 35 86.315 78.02a71.077 71.077 0 01-4.427 24.714l-.764 2.066 1.743 1.347a29 29 0 0110.865 16.714c1.176 5.837-.02 11.305-3.37 15.397-3.44 4.203-8.766 6.519-14.995 6.519-8.417 0-17.217-4.378-22.966-11.427l-3.18-3.898-1.918 4.65c-2.758 6.684-9.288 10.675-17.467 10.675-8.418 0-17.218-4.378-22.966-11.427l-3.18-3.898-1.919 4.65c-2.757 6.684-9.287 10.675-17.468 10.675-8.417 0-17.217-4.378-22.967-11.427l-3.178-3.898-1.92 4.65c-2.756 6.684-9.286 10.675-17.466 10.675-13.229 0-26.08-10.363-28.647-23.101-1.46-7.245.828-13.992 6.119-18.048z"/><path d="M153.801 83.109h-12.23L106.01 7.191a7.278 7.278 0 00-13.182 0L57.266 83.109h-12.23a7.884 7.884 0 00-7.883 7.884 7.884 7.884 0 007.884 7.883H153.8a7.884 7.884 0 007.884-7.883 7.884 7.884 0 00-7.884-7.884z" fill="#7e2cff"/><path class="cls-2" d="M115.684 22.373H88.279l-7.412 15.824h42.23l-7.413-15.824zM128.127 48.936h-52.29L68.424 64.76h67.116l-7.413-15.824z"/><path d="M153.801 83.109h-12.23L106.01 7.191a7.278 7.278 0 00-13.182 0L57.266 83.109h-12.23a7.884 7.884 0 00-7.883 7.884v0a7.884 7.884 0 007.884 7.883H153.8a7.884 7.884 0 007.884-7.883v0a7.884 7.884 0 00-7.884-7.884z" fill="none" stroke="#231f20" stroke-miterlimit="10" stroke-width="6"/></svg>