<svg id="Layer_1" data-name="Layer 1" xmlns="http://www.w3.org/2000/svg" viewBox="0 0 197.489 236.493"><defs><style>.cls-2{fill:#fff}</style></defs><path d="M185.758 185.252a74.023 74.023 0 003.734-23.226c0-44.747-39.988-81.02-89.315-81.02s-89.315 36.273-89.315 81.02a74.09 74.09 0 004.613 25.753 31.822 31.822 0 00-11.97 18.494c-2.84 14.088 6.7 25.509 21.305 25.509 9.691 0 19.174-5.031 25.291-12.53 3.094 7.499 10.55 12.53 20.24 12.53s19.175-5.031 25.292-12.53c3.094 7.499 10.549 12.53 20.24 12.53s19.175-5.031 25.291-12.53c3.094 7.499 10.55 12.53 20.241 12.53 14.606 0 28.748-11.42 31.587-25.509 1.758-8.724-1.234-16.422-7.234-21.021z" fill="#7e2cff"/><ellipse class="cls-2" cx="92.631" cy="150.172" rx="20.231" ry="21.5"/><ellipse class="cls-2" cx="133.112" cy="150.172" rx="20.231" ry="21.5"/><path d="M133.112 125.21c-8.679 0-16.256 5.169-20.25 12.803-3.994-7.634-11.572-12.803-20.25-12.803-12.82 0-23.25 11.272-23.25 25.125s10.43 25.125 23.25 25.125c8.678 0 16.256-5.168 20.25-12.802 3.994 7.634 11.571 12.802 20.25 12.802 12.82 0 23.25-11.271 23.25-25.125s-10.43-25.125-23.25-25.125zm-40.5 44.25c-9.512 0-17.25-8.579-17.25-19.125s7.738-19.125 17.25-19.125a16.488 16.488 0 0112.704 6.233 9.8 9.8 0 104.528 12.5c.002.131.018.26.018.392 0 10.546-7.739 19.125-17.25 19.125zm40.5 0c-9.512 0-17.25-8.579-17.25-19.125s7.738-19.125 17.25-19.125a16.488 16.488 0 0112.704 6.233 9.8 9.8 0 104.528 12.5c.002.131.018.26.018.392 0 10.546-7.739 19.125-17.25 19.125z"/><path d="M57.622 146.316c-10.067-3.275-21.13 2.896-24.662 13.755l-6.313 19.401a3 3 0 105.706 1.857l6.312-19.402c2.51-7.713 10.178-12.16 17.1-9.905 6.92 2.251 10.51 10.352 8.003 18.058l-3.843 11.813a3 3 0 105.706 1.856l3.843-11.813c3.53-10.852-1.786-22.345-11.852-25.62z"/><path d="M189.22 184.25c.468-1.558.877-3.13 1.245-4.709l3.342-10.271a21.251 21.251 0 00-2.05-17.865c-5.754-41.334-44.63-73.4-91.58-73.4-50.903 0-92.315 37.692-92.315 84.02a77.008 77.008 0 004.083 24.769A34.175 34.175 0 00.563 205.68c-1.538 7.634.098 14.873 4.609 20.383 4.602 5.62 11.576 8.718 19.638 8.718a35.833 35.833 0 0024.653-10.4c4.387 6.507 12.027 10.4 20.879 10.4a35.825 35.825 0 0024.652-10.4c4.387 6.507 12.027 10.4 20.88 10.4a35.833 35.833 0 0024.652-10.4c4.387 6.507 12.028 10.4 20.88 10.4 15.936 0 31.425-12.523 34.526-27.916 1.77-8.78-.73-17.076-6.712-22.616zm.832 21.43c-2.568 12.739-15.418 23.102-28.647 23.102-8.18 0-14.71-3.99-17.467-10.675l-1.919-4.65-3.178 3.898c-5.75 7.049-14.55 11.427-22.967 11.427-8.18 0-14.711-3.99-17.468-10.675l-1.919-4.65-3.18 3.898c-5.748 7.049-14.547 11.427-22.965 11.427-8.18 0-14.71-3.99-17.468-10.675l-1.919-4.65-3.179 3.898c-5.749 7.049-14.55 11.427-22.966 11.427-6.229 0-11.554-2.316-14.995-6.519-3.35-4.092-4.546-9.56-3.37-15.397a29 29 0 0110.865-16.714l1.743-1.347-.764-2.066a71.077 71.077 0 01-4.427-24.713c0-43.02 38.72-78.02 86.315-78.02 40.978 0 75.358 25.951 84.13 60.622a17.823 17.823 0 00-2.352-.978c-10.067-3.276-21.13 2.896-24.662 13.754l-6.312 19.402a3 3 0 105.705 1.856l6.312-19.402c2.51-7.713 10.178-12.16 17.1-9.905 6.92 2.251 10.51 10.352 8.004 18.058l-4.67 15.742a52.136 52.136 0 00-1.189 3.181l1.69 1.297c5.291 4.056 7.579 10.803 6.119 18.048z"/><path d="M153.801 83.109h-12.23L106.01 7.191a7.278 7.278 0 00-13.182 0L57.266 83.109h-12.23a7.884 7.884 0 00-7.883 7.884v0a7.884 7.884 0 007.884 7.883H153.8a7.884 7.884 0 007.884-7.883v0a7.884 7.884 0 00-7.884-7.884z" stroke="#231f20" stroke-miterlimit="10" stroke-width="6" fill="#fd0"/><path class="cls-2" d="M115.684 22.373H88.279l-7.412 15.824h42.23l-7.413-15.824zM128.127 48.936h-52.29L68.424 64.76h67.116l-7.413-15.824z"/><path d="M153.801 83.109h-12.23L106.01 7.191a7.278 7.278 0 00-13.182 0L57.266 83.109h-12.23a7.884 7.884 0 00-7.883 7.884v0a7.884 7.884 0 007.884 7.883H153.8a7.884 7.884 0 007.884-7.883v0a7.884 7.884 0 00-7.884-7.884z" fill="none" stroke="#231f20" stroke-miterlimit="10" stroke-width="6"/></svg>