<svg id="Layer_1" data-name="Layer 1" xmlns="http://www.w3.org/2000/svg" viewBox="0 0 665.50958 45.85874"><defs><style>.cls-1{fill:none;stroke:#000;stroke-width:2px;}</style></defs><title>WorkInProgress2021NewLogo</title><path class="cls-1" d="M73.41211,1.65793a.5805.5805,0,0,1,.10791.32422.15811.15811,0,0,1,.0542.10742.9335.9335,0,0,0,.13525.27051,1.83238,1.83238,0,0,0,.189.21582v.1084a.15421.15421,0,0,0,.0542.1084v.21582A2.57782,2.57782,0,0,1,73.52,4.46946q-.43286.64892-.91846,1.24414l-.0542.05469a9.69933,9.69933,0,0,0-.9458,1.21679,2.57475,2.57475,0,0,0-.40527,1.43457v.1084a.15617.15617,0,0,0,.0542.1084v.21582a5.70628,5.70628,0,0,0-.97266,1.46191q-.37866.81153-.70263,1.623a.15558.15558,0,0,1-.05372.10742,19.96,19.96,0,0,1-.97265,2.165,5.07072,5.07072,0,0,1-1.62158,1.78516,22.3709,22.3709,0,0,1-1.99952,6.38574,26.63177,26.63177,0,0,1-3.67431,5.57324,5.00437,5.00437,0,0,1-.32422,1.40625q-.271.70459-.54053,1.40723a.44649.44649,0,0,0-.081.1084.23392.23392,0,0,0-.02686.1084q-.32447.75732-.56738,1.51562a4.9301,4.9301,0,0,0-.24317,1.51465A4.12279,4.12279,0,0,0,59.605,35.07a3.3383,3.3383,0,0,0,.51367,1.05469v.59473a3.02452,3.02452,0,0,1-.29736,1.083.95537.95537,0,0,1-.9458.48633h-.05371a1.47,1.47,0,0,0-.9458.32422,2.99647,2.99647,0,0,0-.67578.75781q-.16187.1084-.35108.2168a1.67855,1.67855,0,0,0-.35107.27051q-1.02759.59472-2.10791,1.16308a6.79064,6.79064,0,0,1-2.26953.73047c-.10791.07325-.20752.13575-.29688.18946a1.22075,1.22075,0,0,0-.24316.18945q-.9734.59472-1.9458,1.10937a4.33241,4.33241,0,0,1-2.05323.51368h-.21631q-.59545-1.56592-1.35107-3.16114-.75732-1.59375-1.56689-3.16113-.8108-1.56738-1.59424-3.16113-.78369-1.59375-1.37793-3.16113-.70312-.97266-1.35108-2.08106a16.58928,16.58928,0,0,1-1.13476-2.35059,1.9871,1.9871,0,0,0-1.6211.7295,8.39036,8.39036,0,0,0-.86474,1.54.2434.2434,0,0,1-.02686.10839.23481.23481,0,0,0-.02734.1084,8.25367,8.25367,0,0,1-.81055,1.459,2.32691,2.32691,0,0,1-1.51318.918v.10839a2.38607,2.38607,0,0,1-.21582.97266,7.51859,7.51859,0,0,1-.48633.919q-.271.48632-.48633.94531a2.08371,2.08371,0,0,0-.21631.8916,1.43784,1.43784,0,0,0,.16211.64844,2.135,2.135,0,0,0,.54053.64844v.32421a.43438.43438,0,0,0-.0542.18946v.18945q-1.83765,1.02686-3.6748,2.08008Q27.85669,40.511,26.12793,41.7009h-.67529a.53338.53338,0,0,1-.24317-.05469h-.59472a2.63006,2.63006,0,0,0-.7837.2168.94253.94253,0,0,0-.459.75586,1.88771,1.88771,0,0,1-.45947.97266,4.69325,4.69325,0,0,1-.8374.70312.94419.94419,0,0,0-.29737.16211c-.09033.07227-.189.14453-.29736.21582a2.7195,2.7195,0,0,1-2.18848-1.54,13.01427,13.01427,0,0,1-.78369-2.62109c-.07226-.43262-.16211-.88184-.27-1.35059A4.26161,4.26161,0,0,0,17.752,37.9177a1.62683,1.62683,0,0,1-.81054-1.05371q-.1626-.6753-.27051-1.43164V35.324a8.18981,8.18981,0,0,0-.37793-1.64844,1.85283,1.85283,0,0,0-1.35108-1.10742,19.74217,19.74217,0,0,0-.86474-2q-.48633-.97266-1.02686-1.89063a.42314.42314,0,0,1-.08105-.10839c-.01856-.03516-.04541-.08985-.08106-.16211q-.81006-1.4048-1.48584-2.86426a9.75194,9.75194,0,0,1-.8374-3.24219,5.47443,5.47443,0,0,1-1.75635-2.02637,24.08288,24.08288,0,0,1-1-2.35058q-.271-.81153-.59423-1.6211a6.342,6.342,0,0,0-.86475-1.51367,7.957,7.957,0,0,1-1.43213-2.28027q-.51416-1.24952-.94531-2.499Q3.43091,8.59886,2.83691,7.24094a7.996,7.996,0,0,0-1.6748-2.44433.59462.59462,0,0,0-.02734-.18848.43425.43425,0,0,1-.02686-.1377,3.8718,3.8718,0,0,1-.081-.40625A2.43876,2.43876,0,0,1,1,3.71067a4.24869,4.24869,0,0,1,.189-.83692,1.0911,1.0911,0,0,1,.51319-.62207,6.16208,6.16208,0,0,1,.97265-.13476c.32422-.01758.66651-.02735,1.02686-.02735a7.72707,7.72707,0,0,1,1.459.13575,3.21678,3.21678,0,0,1,1.29688.56738c.14355-.03613.29736-.08106.45947-.13574.16211-.05371.33252-.11621.51367-.18848q.37721-.1084.81055-.24316a5.21307,5.21307,0,0,1,.81055-.18946c.17969-.03515.34179-.0625.48633-.08105a3.55261,3.55261,0,0,1,.43212-.02735,4.72009,4.72009,0,0,1,.86475.08106,2.0429,2.0429,0,0,1,.81055.35156,2.48239,2.48239,0,0,1,.75635-.37793,2.73453,2.73453,0,0,1,.75683-.1084,2.41833,2.41833,0,0,1,.51319.05371c.1621.03614.33251.07325.51367.1084a.61565.61565,0,0,1,.27.05371.59855.59855,0,0,0,.27.05469,4.19188,4.19188,0,0,0,.75683.24317,3.61464,3.61464,0,0,0,.75635.081,4.25357,4.25357,0,0,0,.64844-.16211,2.01517,2.01517,0,0,0,.64843-.37891h.32422a1.47088,1.47088,0,0,1,1.24317.56739,12.1734,12.1734,0,0,1,.81054,1.21582c0,.03711.00831.05469.02686.05469.01758,0,.02686.01855.02686.05371q.21533.3794.43261.72949a3.30714,3.30714,0,0,0,.48633.62109.93676.93676,0,0,0-.0542.29785v.24317a1.72091,1.72091,0,0,0,.40527,1.13476,6.5615,6.5615,0,0,0,.94581.91895.04815.04815,0,0,1,.05419.05371A7.0788,7.0788,0,0,1,23.21,8.7634a1.99058,1.99058,0,0,1,.43213,1.32422v.21582a4.855,4.855,0,0,0-.16211.59473,2.50629,2.50629,0,0,0-.0542.48633,1.65861,1.65861,0,0,0,.37842,1.13476,6.107,6.107,0,0,0,.86475.81055c.03564.03613.07177.07226.10791.1084a.15362.15362,0,0,0,.10839.05371,7.02822,7.02822,0,0,1,.97266.94629,2.23318,2.23318,0,0,1,.48633,1.32324,2.17547,2.17547,0,0,0,.40527.16211,1.15322,1.15322,0,0,0,.29688.05469.76852.76852,0,0,0,.62158-.29786,7.0114,7.0114,0,0,0,.51367-.72949.233.233,0,0,1,.02686-.10742.41207.41207,0,0,1,.081-.1084c.14356-.21582.28809-.43262.43213-.64844a1.37976,1.37976,0,0,1,.54053-.48632,5.21039,5.21039,0,0,1,.29736-.78418q.18823-.4043.35107-.83692.16186-.37792.29737-.75683.134-.37794.24316-.70215a3.84046,3.84046,0,0,0,.21582-.83789,5.99662,5.99662,0,0,0,.0542-.78321,3.42488,3.42488,0,0,0-.189-1.13476,2.96294,2.96294,0,0,0-.7295-1.08106q.10767-.26952.16211-.46a1.49466,1.49466,0,0,0,.05371-.40527,1.1587,1.1587,0,0,0-.29687-.81055,4.39433,4.39433,0,0,0-.67578-.59375c-.03613-.03613-.07227-.07226-.10791-.1084q-.32446-.32373-.59424-.62109a.976.976,0,0,1-.27051-.67578,1.23686,1.23686,0,0,1,.08106-.43262,1.75451,1.75451,0,0,1,.24316-.43164,6.4833,6.4833,0,0,1,.9458-.27051q.5127-.10839.99951-.16211h.54053a9.04283,9.04283,0,0,1,1.43213.1084,2.98434,2.98434,0,0,1,1.10791.37793,3.52737,3.52737,0,0,1,.459-.18945q.24316-.08056.45948-.13477A1.93033,1.93033,0,0,1,34.80127,1.82h.45947a8.2791,8.2791,0,0,1,.94531.05371c.30567.03614.62159.07227.94581.1084a7.04786,7.04786,0,0,0,.8916.16211,8.06344,8.06344,0,0,0,.9458.05371h.35107a1.66931,1.66931,0,0,0,.40528-.05371q.21532-.05419.40527-.1084c.126-.03515.24316-.07226.35156-.1084a2.02953,2.02953,0,0,0,.459.13575,2.7964,2.7964,0,0,0,.40576.02636,2.20207,2.20207,0,0,0,.70215-.10742c.2163-.07226.45019-.14355.70263-.21679q.32446-.10694.64844-.21582a2.203,2.203,0,0,1,.70264-.1084,1.777,1.777,0,0,1,.43213.05468,2.13025,2.13025,0,0,1,.43261.16211,3.21729,3.21729,0,0,1,1.459,1.43164,15.65723,15.65723,0,0,1,.75635,1.86426.23405.23405,0,0,0,.02685.1084.37437.37437,0,0,1,.02734.16211,13.28109,13.28109,0,0,0,.64844,1.59375A3.893,3.893,0,0,0,49.04053,8.196a2.03415,2.03415,0,0,1,.29736.72949,4.2927,4.2927,0,0,1,.08106.83789,5.65749,5.65749,0,0,0,.27,1.40528c.14356.43164.54053.667,1.189.70214h.27a1.77706,1.77706,0,0,0,1.40527-.62109,8.653,8.653,0,0,0,.97266-1.37793,2.1922,2.1922,0,0,0,.189-.35156,2.19442,2.19442,0,0,1,.189-.35156c.07178-.10743.14355-.21582.21631-.32422.07177-.10742.14355-.21582.21631-.32422q.26952-.53907.54052-1.02637.26953-.48633.54-1.02734a1.43421,1.43421,0,0,0,.13526-.16211,1.40508,1.40508,0,0,0,.13525-.21582q.48633-.91846.97266-1.81055.48633-.89063.91845-1.86426a2.26979,2.26979,0,0,1,1.10791-.75586,4.50958,4.50958,0,0,1,1.37793-.21679h.35108a1.10532,1.10532,0,0,1,.35156.05468q.37719.05421.72949.10743a4.193,4.193,0,0,1,.6753.16211q.32445.43359.67578.32421a3.58048,3.58048,0,0,0,.72949-.32421,2.42824,2.42824,0,0,0,.32422-.13477,2.50648,2.50648,0,0,1,.32422-.13477h.189a.43552.43552,0,0,0,.189-.05468h.37841a7.6135,7.6135,0,0,1,.89161.05468,7.59277,7.59277,0,0,0,.8916.05372q.43212.05419.86474.10839a6.93235,6.93235,0,0,0,.86475.05371,5.1771,5.1771,0,0,0,.78369-.05371,4.10343,4.10343,0,0,0,.67529-.16211,1.26272,1.26272,0,0,0,.40528.21582,1.46215,1.46215,0,0,0,.40527.05372,1.585,1.585,0,0,0,.37842-.05372c.14355-.03515.27-.07226.37793-.10839a3.44251,3.44251,0,0,1,.51367-.16211,2.41086,2.41086,0,0,1,.51318-.05371h.13526a.18753.18753,0,0,1,.13525.05371.46161.46161,0,0,1,.13477.02734.4313.4313,0,0,0,.13525.02734A.36438.36438,0,0,1,73.41211,1.65793Z"/><path class="cls-1" d="M95.59424,1.7927a3.56062,3.56062,0,0,1,.43261-.02734,1.22059,1.22059,0,0,1,.37793-.05372h.43262a7.85793,7.85793,0,0,1,2.729.48633,9.38778,9.38778,0,0,1,2.40479,1.29688.9109.9109,0,0,1,.21582.02734.85711.85711,0,0,0,.21631.02637.5212.5212,0,0,0,.24316.05469.97722.97722,0,0,1,.29737.05371,9.356,9.356,0,0,1,1.91845.542,2.46891,2.46891,0,0,1,1.37793,1.51465,6.524,6.524,0,0,1,3.62061,1.86719,10.02161,10.02161,0,0,1,2.32373,3.43554,11.33676,11.33676,0,0,1,2.45849,2.81446,6.25919,6.25919,0,0,1,1,3.57128v.59571a1.51237,1.51237,0,0,1-.02734.29687,2.61382,2.61382,0,0,1-.081.29785,9.03929,9.03929,0,0,1,.91894,2.48926,13.29444,13.29444,0,0,1,.27,2.70606q0,.542-.02685,1.082-.02784.542-.08106,1.02832c-.03662.21582-.06348.43359-.081.64941-.01856.21582-.0459.4336-.08106.64942a3.4855,3.4855,0,0,0-.08105.43261,3.39626,3.39626,0,0,0-.02735.43262,2.26378,2.26378,0,0,0-1.13476,1.40723,9.69581,9.69581,0,0,0-.27,1.78515c-.03614.3252-.07276.6416-.10791.94727a3.81929,3.81929,0,0,1-.21631.89258c-.25244.2539-.53223.55078-.83789.89355q-.45922.51417-.94531,1.001a15.92266,15.92266,0,0,1-1.37793,1.32617,9.75329,9.75329,0,0,1-1.48633,1.05469,8.748,8.748,0,0,1-2.64795,3.05859,14.82864,14.82864,0,0,1-3.62061,1.97461.67475.67475,0,0,0-.24316.05371c-.09033.03613-.189.07324-.29736.1084a.54894.54894,0,0,0-.24317-.05371h-.24316a1.84417,1.84417,0,0,0-.91846.24316q-.43286.24316-.86475.5127a.087.087,0,0,0-.08105.05469.087.087,0,0,1-.081.05371c-.21582.14453-.41456.2705-.59424.37793a1.68224,1.68224,0,0,1-.59473.21679q-.43286.05421-.86426.10743a7.43584,7.43584,0,0,0-.86474.1621q-.81079.10987-1.59424.18946-.78369.08057-1.59424.18945-.43285,0-.8374.02637c-.27.01855-.54981.02734-.83789.02734q-.37866,0-.75635-.02734c-.25244-.01758-.48633-.044-.70264-.08106a3.55019,3.55019,0,0,1-.75634-.081q-.37868-.08057-.75684-.13477a2.19169,2.19169,0,0,0-1.02637-.459q-.54126-.082-1.13476-.13574c-.21631,0-.43262-.00782-.64844-.02637a2.747,2.747,0,0,1-.64893-.13574q-.43285-.10693-.8374-.21582c-.27-.07227-.5498-.14453-.8374-.2168a.18449.18449,0,0,0-.13526-.05469h-.13525a24.34727,24.34727,0,0,1-2.70166-.89258,4.034,4.034,0,0,1-2.05371-1.86621,6.76062,6.76062,0,0,1-4.3501-2.70507A25.76092,25.76092,0,0,1,72.898,33.04075q-.10914-.21681-.21631-.46-.10841-.24316-.21582-.46094-.37866-.81006-.72949-1.56836a14.43657,14.43657,0,0,0-.7837-1.46094,6.28639,6.28639,0,0,1-.64843-1.8125,10.15072,10.15072,0,0,1-.16211-1.8125,14.18441,14.18441,0,0,1,.08105-1.51562q.0813-.75734.189-1.56934.05346-.75732.13525-1.51465a14.17989,14.17989,0,0,0,.08106-1.51465v-.35254a1.7129,1.7129,0,0,0-.0542-.40625,2.95125,2.95125,0,0,0-.02686-.40527,2.42461,2.42461,0,0,1-.02685-.35156q.26952-.48633.48632-.97363a8.65493,8.65493,0,0,0,.37793-1.02833.15812.15812,0,0,0,.0542-.10839.15776.15776,0,0,1,.0542-.1084,15.74127,15.74127,0,0,1,.86426-1.94727,4.4765,4.4765,0,0,1,1.40527-1.57031A5.10276,5.10276,0,0,1,74.84326,9.99a18.33457,18.33457,0,0,1,1.67529-1.67675,4.67736,4.67736,0,0,1,.56739-.48731,4.84516,4.84516,0,0,0,.56738-.4873,2.46956,2.46956,0,0,0,1.51318-.62207,8.85424,8.85424,0,0,0,1.189-1.27246q.16187-.21534.32422-.40528c.10791-.126.2163-.26172.32421-.40527a2.97782,2.97782,0,0,1,1.59424-.86621,15.19046,15.19046,0,0,1,1.81006-.2168,16.47787,16.47787,0,0,0,1.97266-.32422,2.95709,2.95709,0,0,0,1.64795-1.082,8.189,8.189,0,0,0,1.35107-.1084,12.617,12.617,0,0,0,1.24316-.2705q.26953-.05274.54-.10743c.18018-.03613.35987-.07226.54053-.10839.21631-.03516.44092-.07227.67529-.1084a4.90165,4.90165,0,0,1,.7295-.05371,4.8402,4.8402,0,0,1,1,.10839,4.41662,4.41662,0,0,1,1.05371.37793A3.93014,3.93014,0,0,1,95.59424,1.7927Zm-1.54,12.80762a.43135.43135,0,0,0-.13477-.02735h-.0542a3.1003,3.1003,0,0,0-.32422-.18945.95963.95963,0,0,1-.32422-.29688,7.52726,7.52726,0,0,0-2.89111,1.21582,15.20472,15.20472,0,0,0-2.459,2.18848,4.04058,4.04058,0,0,0-.08106.40527,2.80612,2.80612,0,0,0-.02685.40528v.32422a1.00382,1.00382,0,0,0,.0542.32422v1.32421a.91068.91068,0,0,1-.1084.40528,4.56714,4.56714,0,0,1-.05371.67578q-.05493.35155-.1084.72949-.0542.70166-.10791,1.459-.0542.75732-.0542,1.5664a11.31777,11.31777,0,0,0,.43262,3.13477,5.47566,5.47566,0,0,0,1.729,2.64746,3.67361,3.67361,0,0,1,.62158.16211,3.39457,3.39457,0,0,1,.56739.27051q.43212.16258.8916.29687a3.306,3.306,0,0,0,.9458.13574,2.0594,2.0594,0,0,0,.459-.05468c.16211-.03516.31494-.07129.45947-.10743a4.52139,4.52139,0,0,0,2.67481-1.67578,10.45141,10.45141,0,0,0,1.54053-2.75586,5.44129,5.44129,0,0,0,.32422-.94531c.07177-.30566.14355-.60352.21582-.8916q0-.37793.02734-.78418.02637-.4043.081-.7832c0-.28809.0083-.56739.02686-.83789q.02637-.40431.081-.83692v-.86523a15.3245,15.3245,0,0,0-.16211-2.26953A4.595,4.595,0,0,0,97.54,17.00461a2.0102,2.0102,0,0,1-.73-.459q-.29737-.29736-.56739-.62207a.04722.04722,0,0,1-.05371-.05371,4.67571,4.67571,0,0,0-.83789-.83789,1.86231,1.86231,0,0,0-1.16162-.35059A.34434.34434,0,0,0,94.0542,14.60032Z"/><path class="cls-1" d="M135.79883,1.54954a.44732.44732,0,0,1-.08106.10839l-.08105.16211a.36821.36821,0,0,0-.02686.16211v.05371c.21631-.03515.44092-.08105.67529-.13476.23389-.05469.45948-.11719.67578-.18946.28809-.07226.585-.14355.89161-.21582a4.10131,4.10131,0,0,1,.9458-.10839,4.52288,4.52288,0,0,1,.51318.02734,1.36333,1.36333,0,0,1,.45947.13477,1.37051,1.37051,0,0,0,.45948.459.94289.94289,0,0,0,.459.13574,1.65539,1.65539,0,0,0,.56738-.1084,3.30266,3.30266,0,0,0,.56739-.2705h.0542c.2163-.07129.42285-.14356.62158-.21582a1.64905,1.64905,0,0,1,.56738-.1084,4.76173,4.76173,0,0,1,.51318.02734,4.51317,4.51317,0,0,0,.51368.02734,1.65962,1.65962,0,0,0,.40527.05372h.40527a12.24771,12.24771,0,0,1,2.86377.54,2.91826,2.91826,0,0,1,1.8916,1.89161.43082.43082,0,0,0,.189.05371h.13525a.80456.80456,0,0,0,.40528-.10743c.12548-.07226.24316-.14355.35107-.21679.07178-.03516.15283-.08106.24316-.13477q.13478-.08056.24317-.13476a2.9489,2.9489,0,0,1,1.8916.81445,10.03657,10.03657,0,0,1,1.24268,1.51953c.03564.03711.0625.06445.08105.082a.11221.11221,0,0,1,.02734.08106q.48633.65185.99952,1.25a2.5666,2.5666,0,0,0,1.32373.81347,2.84755,2.84755,0,0,0,.40527.81543q.29663.43361.62158.86817.37793.54345.70264,1.11426a2.333,2.333,0,0,1,.32422,1.167,1.689,1.689,0,0,1-.13526.65136,1.8145,1.8145,0,0,1-.51318.65235v.2168q0,.37938.21631.48925a1.90968,1.90968,0,0,0,.48633.16211h.05371c.1084.03711.22461.082.35156.13672a.59684.59684,0,0,1,.29687.29785,4.26971,4.26971,0,0,1,.35157,1.24317,10.49728,10.49728,0,0,1,.08105,1.29687,9.20783,9.20783,0,0,1-.32422,2.43164,17.75881,17.75881,0,0,1-.75683,2.21582.26728.26728,0,0,0-.13477.05371.33388.33388,0,0,1-.18945.05371,2.70551,2.70551,0,0,0-.40527.37891,1.02562,1.02562,0,0,0-.24317.48633.86067.86067,0,0,0,.02734.21582.97835.97835,0,0,0,.08106.21582,1.18851,1.18851,0,0,1,.29687.46,1.60606,1.60606,0,0,1,.08106.5127,1.5247,1.5247,0,0,1-.24316.78418q-.24316.40429-.51319.7832c-.03613.03613-.07275.07226-.10791.1084l-.1084.10742q-.271.3252-.51318.67578a2.69037,2.69037,0,0,0-.35156.67578,4.98647,4.98647,0,0,1-1.40479.919,11.47588,11.47588,0,0,1-1.56738.54c-.10791.03613-.19824.06347-.27.08105a1.12244,1.12244,0,0,0-.21631.08106c-.21582.07226-.42383.14453-.62109.21582-.19873.07324-.40528.14453-.62159.21679a.2453.2453,0,0,0-.13525.13477.58373.58373,0,0,0-.02685.18945v.16211a.42384.42384,0,0,0,.02685.13477.12218.12218,0,0,1-.02685.13476,1.72266,1.72266,0,0,0,.9458.8916,7.90466,7.90466,0,0,0,1.21582.29785,6.96545,6.96545,0,0,1,1.05371.18848,1.66718,1.66718,0,0,1,.8916.62207,3.77742,3.77742,0,0,1,2.81006-1.24316c.17969,0,.36914.00976.56738.02734a2.062,2.062,0,0,1,.56738.13477,1.63047,1.63047,0,0,1,.35108.75683,4.95928,4.95928,0,0,1,.08105.918v.32422a1.03952,1.03952,0,0,1-.05371.32422,3.97033,3.97033,0,0,1-.0542.64844c-.03613.21679-.07275.43261-.10791.64941a1.14093,1.14093,0,0,0-.29736.48633,1.86932,1.86932,0,0,0-.08106.54,2.65672,2.65672,0,0,0,.08106.64844c.0542.21582.1167.43261.189.64843q.10767.32373.18946.67578a3.01984,3.01984,0,0,1,.08105.67481,1.95515,1.95515,0,0,1-.48633,1.29687.3479.3479,0,0,1-.16211.16211,1.86737,1.86737,0,0,1-.2705.1084,2.02629,2.02629,0,0,0-.35108.21582.46226.46226,0,0,0-.13525.37891v.10742a.40487.40487,0,0,0,.0542.16211,2.34921,2.34921,0,0,1,.86474.91894,2.51333,2.51333,0,0,1,.27,1.13477,2.93033,2.93033,0,0,1-.02685.40527,1.34953,1.34953,0,0,1-.13526.40528,2.91066,2.91066,0,0,1-1.40478.83789,6.56029,6.56029,0,0,1-1.78369.24316h-.43213a1.76365,1.76365,0,0,1-.43213-.05371,14.26323,14.26323,0,0,1-1.51318-.18945q-.75734-.13477-1.35108-.29688a1.45947,1.45947,0,0,0-.48633-.32422,1.44449,1.44449,0,0,0-.54052-.10839,1.22056,1.22056,0,0,0-.37793.05371.68532.68532,0,0,0-.27051.16211,3.88273,3.88273,0,0,1-.8374.35156,2.38849,2.38849,0,0,1-.9458.081,3.1545,3.1545,0,0,1-.56739-.05371q-.29736-.05419-.56738-.1084a10.28933,10.28933,0,0,1-1.189-.40527q-.59546-.24316-1.189-.51367a2.40035,2.40035,0,0,0-.459-.26953c-.16211-.07227-.31592-.14356-.45948-.2168a2.576,2.576,0,0,1-.21631-.24316c-.07226-.08887-.144-.18848-.21582-.29688a10.59161,10.59161,0,0,0-1.10791-1.05371,2.84726,2.84726,0,0,0-1.48632-.62207q-.21608-.21532-.40528-.43164-.18969-.21534-.40527-.43262c-.03613,0-.05371-.00879-.05371-.02734,0-.01758-.01856-.02637-.0542-.02637a16.1228,16.1228,0,0,0-1.37793-1.32422,5.17369,5.17369,0,0,0-1.64844-.94531,1.224,1.224,0,0,0-.62109.72949,5.58651,5.58651,0,0,0-.18946.8916c-.03613.21582-.07275.41407-.10791.59375a1.68829,1.68829,0,0,1-.2163.541,2.73107,2.73107,0,0,1,.40527.86426,3.83259,3.83259,0,0,1,.13525,1.02734v.24317a.54253.54253,0,0,1-.0542.24316,1.5524,1.5524,0,0,1-.02685.29687,1.00889,1.00889,0,0,1-.08106.24317,1.24642,1.24642,0,0,1-.45947.64844,4.76689,4.76689,0,0,1-.78369.48632.42624.42624,0,0,0-.16211.05371.47936.47936,0,0,1-.21582.05469h-.43262a8.384,8.384,0,0,1-1.54-.13574,2.366,2.366,0,0,1-1.32373-.7832,6.86227,6.86227,0,0,1-1.29687.43261,6.51238,6.51238,0,0,1-1.45947.16211,5.344,5.344,0,0,1-1.40479-.18945,3.91339,3.91339,0,0,1-1.29687-.62109.15417.15417,0,0,1-.10791-.05469h-.16211a.72141.72141,0,0,0-.43262.16211,1.90594,1.90594,0,0,0-.37842.3789,2.39233,2.39233,0,0,1-.35107.37793.68114.68114,0,0,1-.45948.16211h-1.35058a7.65015,7.65015,0,0,1-2.05371-.37793,2.26419,2.26419,0,0,1-1.40479-1.40527,7.23582,7.23582,0,0,1-.16211-.83789,5.82139,5.82139,0,0,1-.0542-.7832,8.12708,8.12708,0,0,1,.13526-1.48633q.134-.72949.29687-1.43164.1626-.81153.29737-1.56738a8.64749,8.64749,0,0,0,.13525-1.5127c0-.2168-.00928-.44141-.02734-.67578a2.84571,2.84571,0,0,0-.13477-.67578,3.57563,3.57563,0,0,0-.18945-.67578,3.49624,3.49624,0,0,0-.35108-.67481c-.03613-.14355-.06347-.27051-.08105-.3789a1.90263,1.90263,0,0,1-.02686-.32422,2.03783,2.03783,0,0,1,.16211-.81153,7.51224,7.51224,0,0,1,.37793-.75879,1.95834,1.95834,0,0,1,.16211-.35156c.07178-.126.14356-.26172.21631-.40527a2.68214,2.68214,0,0,0,.08105-.29883,1.54087,1.54087,0,0,0,.02686-.29785.91316.91316,0,0,0-.02686-.21582.86751.86751,0,0,1-.02685-.2168,2.92555,2.92555,0,0,0-.27051-.43262,2.49321,2.49321,0,0,0-.43213-.43457q0-.48632-.02685-.94726c-.01856-.30567-.02735-.60449-.02735-.89258,0-.32422-.00927-.64062-.02685-.94727-.01856-.30664-.02686-.60546-.02686-.89355a15.66627,15.66627,0,0,1,.21582-2.626,6.67244,6.67244,0,0,1,.91895-2.41015.83394.83394,0,0,0,0-.59473,1.72819,1.72819,0,0,0-.32422-.43359c-.03662-.03516-.06348-.0625-.08106-.08106a.11433.11433,0,0,0-.081-.02734,2.11422,2.11422,0,0,0-.24316-.29785.73028.73028,0,0,1-.18946-.35157,1.20992,1.20992,0,0,1,.02735-.24316,1.57437,1.57437,0,0,0,.02685-.29883v-1.001a1.91488,1.91488,0,0,0-.0542-.46v-.4873c0-.25293-.00928-.50488-.02685-.75879-.01856-.252-.02686-.4873-.02686-.7041a6.7254,6.7254,0,0,1,.21582-1.73242,2.32527,2.32527,0,0,1,.86475-1.29981V9.4509a1.01316,1.01316,0,0,0-.21631-.64941,2.392,2.392,0,0,0-.54-.48828.70124.70124,0,0,1-.18945-.13477.72841.72841,0,0,0-.189-.13476,3.59054,3.59054,0,0,0-.02685-.4336,3.39615,3.39615,0,0,1-.02735-.43262q-.0542-.43359-.08105-.86621c-.01856-.28906-.02686-.57812-.02686-.86718a4.52269,4.52269,0,0,1,.02686-.51368c.01806-.1621.04492-.335.08105-.51562a1.72913,1.72913,0,0,1,.08106-.48633,3.00037,3.00037,0,0,1,.18945-.4873c.03516-.03614.0625-.0625.08106-.08106a.11261.11261,0,0,0,.02685-.081,8.217,8.217,0,0,1,.9458-.81055,1.83061,1.83061,0,0,1,1.10742-.37891,1.28757,1.28757,0,0,1,.35157.05469,2.39731,2.39731,0,0,1,.40527.16211.71609.71609,0,0,0,.32422.26953,1.01772,1.01772,0,0,0,.32422.05469.946.946,0,0,0,.45947-.13574,1.77624,1.77624,0,0,0,.40527-.29688.43965.43965,0,0,1,.10791-.08105.4183.4183,0,0,0,.10791-.08106c.1084-.07226.207-.13476.29737-.18945a.48346.48346,0,0,1,.24316-.08105q.75587-.05274,1.48633-.08106.72949-.02637,1.48584-.02637a13.183,13.183,0,0,1,2.40478.21582,5.23527,5.23527,0,0,1,2.08057.86426,2.64182,2.64182,0,0,1,.97266-.7832,7.68437,7.68437,0,0,1,1.13476-.40527,1.01584,1.01584,0,0,1,.24317-.08106,2.45152,2.45152,0,0,0,.29736-.08105A.37161.37161,0,0,1,135.79883,1.54954Zm5.72851,11.32128a.10715.10715,0,0,1-.02734-.081.42323.42323,0,0,1-.08106-.1084.08788.08788,0,0,1,.02735-.1084q-.32447-.05273-.64844-.081c-.21631-.01758-.45117-.02637-.70264-.02637h-.48633a5.93976,5.93976,0,0,0-1.189.35059,2.95956,2.95956,0,0,0-1.08057.78418.52139.52139,0,0,0-.32422.21582.57851.57851,0,0,0-.10839.32422.56622.56622,0,0,0,.02734.18945,1.37726,1.37726,0,0,0,.08105.18945.32853.32853,0,0,0,.05372.18848.27012.27012,0,0,1,.05419.13574c.03516.07227.07178.14356.10791.21582.03565.07227.07178.14453.1084.21582v1.94531q0,.86572-.08105,1.7295a3.97915,3.97915,0,0,1-.51367,1.62109c.03564.1084.08105.22559.13525.35156.0542.127.09863.24317.13525.35156q.26953.70167.51319,1.48536a4.17053,4.17053,0,0,1,.189,1.54v.29785a.97178.97178,0,0,1-.05371.29687,1.499,1.499,0,0,1-.02734.29688,2.66993,2.66993,0,0,1-.08106.29785.18254.18254,0,0,0-.05371.13476v.18946a.82546.82546,0,0,0,.37793.70215,5.88773,5.88773,0,0,0,.81055.48632.25075.25075,0,0,1,.1084.02735.22862.22862,0,0,0,.10791.02636,2.86263,2.86263,0,0,1,.51318.27051c.16211.1084.31494.21582.45947.32422a3.802,3.802,0,0,1,.35157-.40527q.18822-.189.40527-.40528a1.87443,1.87443,0,0,0,.29687-.24316l.24317-.24316a12.67882,12.67882,0,0,0,1.189-1.24317,2.36679,2.36679,0,0,0,.54053-1.5664v-.16211a.15423.15423,0,0,1-.0542-.1084v-.1084a3.46389,3.46389,0,0,0,.29736-.81055c.05372-.251.09864-.5039.13477-.75586v-.05468a6.68594,6.68594,0,0,1,.16211-.78321,4.40873,4.40873,0,0,1,.32471-.83789,4.87855,4.87855,0,0,1-.37842-1.32422c-.07275-.48632-.127-.98047-.16211-1.48535a15.82933,15.82933,0,0,0-.37842-2.29687A2.97373,2.97373,0,0,0,141.5,13.00559C141.53564,12.9343,141.54492,12.88938,141.52734,12.87082Z"/><path class="cls-1" d="M193.53906,1.44114h.64844a1.57852,1.57852,0,0,0,.37793-.05371h.64892a2.22008,2.22008,0,0,1,1.05371.24316,1.24007,1.24007,0,0,1,.56739,1,3.95422,3.95422,0,0,1,2.56689,1.22168,9.32234,9.32234,0,0,1,1.75586,2.415q.10767.21826.21631.48926a3.91714,3.91714,0,0,1,.16211.48828c.14355.1084.28808.21777.43262.32617a5.31708,5.31708,0,0,0,.48632.32422,10.22337,10.22337,0,0,1,.91846.81543,1.41024,1.41024,0,0,1,.43213,1.03027v.21875a1.6071,1.6071,0,0,1-.48633,1.22168,11.06466,11.06466,0,0,1-1.08056.89453.45761.45761,0,0,1-.10791.082.08715.08715,0,0,0-.0542.08106,1.412,1.412,0,0,0-.21631.13574,1.42847,1.42847,0,0,1-.21582.13574,1.72962,1.72962,0,0,0-.91895.35352,7.93248,7.93248,0,0,0-.70264.624l-.05371.05371q-.37866.32667-.75683.625a1.43622,1.43622,0,0,1-.91846.29785h-.0542a2.87225,2.87225,0,0,1-.81055,1.57032,11.15647,11.15647,0,0,1-1.40478,1.1914.3479.3479,0,0,1-.13525.08106.341.341,0,0,0-.13526.08105,15.32026,15.32026,0,0,0-1.37793,1.21875,2.097,2.097,0,0,0-.62158,1.543,1.9325,1.9325,0,0,0,.02734.3252,2.04491,2.04491,0,0,0,.08106.32422,1.89457,1.89457,0,0,1-.1084.18945.33178.33178,0,0,0-.05371.18945.43088.43088,0,0,0-.0542.18945v.18946a1.223,1.223,0,0,0,.02686.24414.96789.96789,0,0,0,.08105.24316q.05346.1626.1084.3252c.03515.10742.07178.21582.10791.32422a4.4743,4.4743,0,0,1,.27.67675,2.49066,2.49066,0,0,1,.1084.73145v.16211c-.03662.03613-.0542.06348-.0542.08105v.08106a.75848.75848,0,0,0,.40527.35254,1.807,1.807,0,0,0,.56738.08105h.54053a2.00728,2.00728,0,0,1,.48633.05469.80383.80383,0,0,1,.37842.21582q.43138.3252.91845.623a8.3477,8.3477,0,0,0,.97266.51367c.07178.03711.13525.07324.18945.1084a1.4143,1.4143,0,0,0,.189.1084,14.94845,14.94845,0,0,1,1.459.83984,6.45907,6.45907,0,0,1,1.24317,1.05469,3.68443,3.68443,0,0,1,.459-.08106,4.26682,4.26682,0,0,1,.45947-.02637,2.14175,2.14175,0,0,1,.97266.2168.92331.92331,0,0,1,.48633.81153v.32519a3.05774,3.05774,0,0,1-.10791.78516q-.10914.40575-.21631.83886a6.34433,6.34433,0,0,0-.27.75782,2.73083,2.73083,0,0,0-.1084.75781,1.67539,1.67539,0,0,0,.13526.65039,1.84334,1.84334,0,0,0,.40527.5957,1.20248,1.20248,0,0,1,.21631.46,2.178,2.178,0,0,1,.05371.46,2.67238,2.67238,0,0,1-.08106.6504,4.65751,4.65751,0,0,1-.189.59472,3.81781,3.81781,0,0,0-.24317.5957,1.87622,1.87622,0,0,0-.081.541,1.1315,1.1315,0,0,0,.10791.46094,1.52466,1.52466,0,0,0,.32422.46,1.09465,1.09465,0,0,1,.08105.2168.88926.88926,0,0,1,.02735.21582.49336.49336,0,0,1,.05371.21679v.2168a2.479,2.479,0,0,1-.10791.73047,4.44443,4.44443,0,0,1-.27.67676,1.37746,1.37746,0,0,0-.08106.18945.3472.3472,0,0,1-.08105.13574,2.84038,2.84038,0,0,0-.16211.56934,3.11741,3.11741,0,0,0-.0542.56738,2.88482,2.88482,0,0,0,.0542.51465,1.25956,1.25956,0,0,0,.27.56836v.21582a1.33976,1.33976,0,0,1-.45947,1.05371,1.42725,1.42725,0,0,1-1.10742.35156H201.915a2.90823,2.90823,0,0,1-.70264-.08105,4.36043,4.36043,0,0,1-.59424-.18946c-.1084-.03515-.21631-.07128-.32422-.10742q-.1626-.05419-.32422-.1084a1.20312,1.20312,0,0,1-.24316-.02734,1.28636,1.28636,0,0,0-.24316-.02637q-.271.05421-.56739.13477a1.67726,1.67726,0,0,0-.62158.35156q-.37866-.05419-.75683-.13574-.37868-.08057-.81055-.18848a10.74715,10.74715,0,0,1-2.62061-1.13476,4.46912,4.46912,0,0,1-1.86426-2.16211,5.15661,5.15661,0,0,1-3.59375-1.24317,23.03481,23.03481,0,0,1-2.62109-2.80957c-.07226-.07226-.13476-.13476-.189-.18945a.6976.6976,0,0,1-.13526-.18848q-.75732-.91845-1.51318-1.75683a10.19275,10.19275,0,0,0-1.67481-1.48633.33484.33484,0,0,0-.0542-.18848,1.31162,1.31162,0,0,0-.1621-.18945c-.03614-.03516-.07276-.07129-.10791-.1084a.15056.15056,0,0,1-.0542-.10742.59053.59053,0,0,0-.35108.29687,1.02,1.02,0,0,0-.08105.40528,1.46458,1.46458,0,0,0,.02685.29687,2.38483,2.38483,0,0,0,.08106.29785,1.47138,1.47138,0,0,0,.02685.29688,1.52262,1.52262,0,0,1,.02735.29785,1.24651,1.24651,0,0,1-.02735.24316,1.00889,1.00889,0,0,1-.08105.24317c.03564.14355.0625.2793.08105.40527a2.8637,2.8637,0,0,1,.02735.40528,3.27652,3.27652,0,0,1-.13526.97265q-.13549.43213-.29736.86426a.24664.24664,0,0,1-.02686.1084.23312.23312,0,0,0-.02685.10742,6.30948,6.30948,0,0,0-.27051.75684,2.91664,2.91664,0,0,0-.10791.81054.23392.23392,0,0,0,.02686.1084.38207.38207,0,0,1,.02734.16211v.10742a.40233.40233,0,0,0,.05371.16211.41806.41806,0,0,0,.02734.13574.45858.45858,0,0,1,.02686.13477.98493.98493,0,0,1,.35107.51367,2.34467,2.34467,0,0,1,.08106.6211v.59472a1.01652,1.01652,0,0,0-.05371.32422v.43262a2.48765,2.48765,0,0,1-1.40528.918,7.30589,7.30589,0,0,1-1.7832.21679h-.81055a.67772.67772,0,0,1-.40527-.13574,2.6304,2.6304,0,0,1-.35156-.29687l-.05371-.05371a1.8388,1.8388,0,0,0-.48633-.43262.79077.79077,0,0,0-.70264,0,2.62026,2.62026,0,0,1-1.37793.94531,6.27284,6.27284,0,0,1-1.75634.24316h-.29737a.533.533,0,0,1-.24316-.05371h-.59424c-.14453-.03515-.29736-.07226-.45947-.10839a1.88824,1.88824,0,0,1-.45948-.16211.58328.58328,0,0,1-.189-.02637,1.51851,1.51851,0,0,1-.189-.08106,7.35591,7.35591,0,0,0-.72949-.2705,2.46624,2.46624,0,0,0-.72949-.1084,1.72988,1.72988,0,0,0-.72949.16211,1.84976,1.84976,0,0,0-.67578.59472.53879.53879,0,0,1-.24317.05371h-.24316a2.502,2.502,0,0,1-1.32373-.37792,1.429,1.429,0,0,1-.72949-.97266,4.04981,4.04981,0,0,0,.05371-.65039v-.5957c0-.32422-.00928-.65918-.02686-1.00293q-.02783-.51417-.08105-1.002c-.03614-.32519-.06348-.64062-.08106-.94824-.01855-.30664-.02685-.62207-.02685-.94824a9.386,9.386,0,0,1,.13476-1.59863,5.56108,5.56108,0,0,1,.51367-1.544A16.3863,16.3863,0,0,1,164.52,31.9177a23.48366,23.48366,0,0,1-.16211-2.73633V27.88059q.05346-.75732.10791-1.57031.05346-.813.1084-1.57129.10766-1.13672.16211-2.19434.05272-1.05615.05371-2.08691v-.541a4.49479,4.49479,0,0,1-.459-1.24609,6.62382,6.62382,0,0,1-.13525-1.35449v-.3252a1.578,1.578,0,0,1,.0542-.37988,8.91,8.91,0,0,1,.27-1.65137,14.01215,14.01215,0,0,1,.48633-1.54492,5.27327,5.27327,0,0,1-.59424-1.5166,7.22349,7.22349,0,0,1-.16211-1.51758,8.82773,8.82773,0,0,1,.05371-.97559c.03564-.32519.07178-.64941.1084-.97461V8.26731c.03515-.32422.0625-.668.081-1.0293q.02637-.542.02686-1.0293a10.77324,10.77324,0,0,0-.0542-1.11035,4.00709,4.00709,0,0,0-.27-1.05761V3.71653a3.82213,3.82213,0,0,1,.37842-1.11035,2.74749,2.74749,0,0,1,.75634-.89454,1.81545,1.81545,0,0,1,.43213-.05371,1.78083,1.78083,0,0,0,.43262-.05468h.43213a4.43139,4.43139,0,0,1,1.21582.16211,1.93936,1.93936,0,0,1,.9458.59472,6.68367,6.68367,0,0,1,1.24268-.62109,3.81643,3.81643,0,0,1,1.35107-.24317,3.2549,3.2549,0,0,1,.56738.05372,2.95052,2.95052,0,0,1,.56739.1621,1.83784,1.83784,0,0,0,.56738.67579,1.13977,1.13977,0,0,0,.62158.18847,1.27739,1.27739,0,0,0,.64844-.18847c.21631-.126.45019-.26172.70263-.40528a5.60256,5.60256,0,0,1,.7295-.40527,1.85015,1.85015,0,0,1,.78369-.18945h1.67529a7.99218,7.99218,0,0,1,1.67481.16211,1.33355,1.33355,0,0,1,1.02685.91894c.03565.10742.07178.207.1084.29688a.6788.6788,0,0,1,.05371.24316.54253.54253,0,0,1,.0542.24316v.29688a2.528,2.528,0,0,1-.0542.48633c-.03613.18066-.07275.34277-.10791.48632-.03662.14454-.08105.29786-.13525.46s-.09961.31543-.13526.459q-.16187.48633-.29687.97266a3.60929,3.60929,0,0,0-.13526.97265,1.95322,1.95322,0,0,0,.189.83789,3.02412,3.02412,0,0,0,.62158.83789.47866.47866,0,0,1,.13525.24317,1.54494,1.54494,0,0,1,.02686.29687v.86426a2.07053,2.07053,0,0,0,.081.59473.98678.98678,0,0,0,.35157.48633,3.08621,3.08621,0,0,0,1.08056-.7295q.43214-.45849.81055-.94531.48633-.59472,1-1.13476a2.77625,2.77625,0,0,1,1.37793-.75684A8.79909,8.79909,0,0,1,188,5.33176a9.72791,9.72791,0,0,1,2.89111-1.7832,2.53741,2.53741,0,0,1,.78369-1.43164,2.33741,2.33741,0,0,1,1.54-.72949A1.01429,1.01429,0,0,0,193.53906,1.44114Z"/><path class="cls-1" d="M246.52392,1.71164a5.2186,5.2186,0,0,1,.99951-.21582.94708.94708,0,0,1,.29737-.05468h.24316a3.2238,3.2238,0,0,1,1.459.35156A2.34282,2.34282,0,0,1,250.604,3.00852a5.16892,5.16892,0,0,1,.05371.70605v.65137q0,.54346-.02685,1.05957-.02784.51563-.08106,1.00391-.0542.54345-.08105,1.05957c-.01856.34375-.02686.67871-.02686,1.00488a7.89537,7.89537,0,0,0,.13477,1.43848,7.0309,7.0309,0,0,0,.45947,1.49316q-.10913.70752-.16211,1.3584-.0542.65038-.0542,1.30273,0,.75734.0542,1.5127.05348.75732.16211,1.51367v.16211a.468.468,0,0,0,.0542.21582q.05274.81006.13477,1.64844.08129.83789.08105,1.75586,0,.54053-.05371,1.16211-.05493.62109-.16211,1.26953c0,.39746.01758.81055.05371,1.24316q.05346.64893.1084,1.29688.05274.59472.08105,1.24316.02637.64746.08106,1.29688v.86425q0,.91993-.08106,1.8379a7.54628,7.54628,0,0,1-.35156,1.72851,1.29063,1.29063,0,0,1,.21631.40527,1.71765,1.71765,0,0,1,.0542.46,1.51314,1.51314,0,0,1-.02734.29687,1.2215,1.2215,0,0,0-.02686.24316,1.67426,1.67426,0,0,0-.0542.40528v.35156a1.16205,1.16205,0,0,0,.37842.86426,7.61552,7.61552,0,0,0-.24317,1.1084,7.80789,7.80789,0,0,0-.08105,1.10742c0,.28906.0083.57715.02686.86426q.02709.43359.08105.81054,0,.43361.02734.86524c.01758.28906.02686.57617.02686.86426a8.89622,8.89622,0,0,1-.0542.97265q-.0542.48633-.16211,1.02735a1.57691,1.57691,0,0,1-.8374.94531,2.92574,2.92574,0,0,1-1.16211.24316h-.21582a.47536.47536,0,0,1-.21631-.05371.85882.85882,0,0,1-.21631-.02734.91085.91085,0,0,0-.21582-.02735,2.72062,2.72062,0,0,0-.72949-.29687,3.51687,3.51687,0,0,0-.78369-.08106,4.55675,4.55675,0,0,0-.67578.05371,4.431,4.431,0,0,1-.6753.05469q-.37866.05421-.72949.10742a4.44064,4.44064,0,0,1-.67529.05469,4.77845,4.77845,0,0,1-.73-.05469,2.12105,2.12105,0,0,1-.72949-.26953,8.17617,8.17617,0,0,1-1.37793.32422,10.09878,10.09878,0,0,1-1.48584.10742c-.21631,0-.45118-.00781-.70264-.02636-.25244-.01758-.48633-.02735-.70264-.02735a2.26061,2.26061,0,0,1-.37793-.02734,2.39351,2.39351,0,0,0-.37842-.02637c-.36035-.03613-.71191-.0625-1.05371-.08105q-.51415-.02784-1-.02735h-.64843a.3657.3657,0,0,0-.16211.02735.37082.37082,0,0,1-.16211.02636,15.57486,15.57486,0,0,1-.51319-1.94726,10.44794,10.44794,0,0,1-.189-2.002,8.60243,8.60243,0,0,1,.13476-1.51563,12.271,12.271,0,0,1,.35157-1.46094,6.3742,6.3742,0,0,1-.27051-1.35254q-.05419-.64892-.05371-1.29882a14.72121,14.72121,0,0,1,.08105-1.56934q.08057-.75732.189-1.56934.10767-.75732.189-1.51464A14.70781,14.70781,0,0,0,234.5,28.60227a11.94133,11.94133,0,0,0-.10791-1.56934A7.75577,7.75577,0,0,0,233.96,25.3552v-.37891a9.68936,9.68936,0,0,0-.0542-1.001c-.03613-.34278-.07275-.67578-.10791-1.001q-.05493-.48633-.1084-.94629a8.10093,8.10093,0,0,1-.05371-.94726c0-.2168.0083-.43262.02686-.64942a2.73471,2.73471,0,0,1,.13525-.64941,3.1134,3.1134,0,0,1,.189-.59473c.08936-.21582.189-.43359.29737-.65039a4.67355,4.67355,0,0,1-.54053-1.97363,21.09284,21.09284,0,0,1,0-2.1377V13.01829a1.79172,1.79172,0,0,0-.0542-.43262,3.1979,3.1979,0,0,0-.02685-.37891,3.39523,3.39523,0,0,1-.02686-.43262,1.614,1.614,0,0,1,.08105-.51464c.05372-.16211.09864-.31446.13477-.46q.05346-.26954.13525-.56739a2.16117,2.16117,0,0,0,.08106-.56933,1.61209,1.61209,0,0,0-.08106-.51368,1.02519,1.02519,0,0,0-.35107-.46.865.865,0,0,1,.02686-.21582,1.17849,1.17849,0,0,0,.02685-.27148.48033.48033,0,0,0,.0542-.21582v-.2168c0-.17969-.00928-.36035-.02686-.541-.01855-.18067-.04589-.36036-.08105-.541a2.14836,2.14836,0,0,0-.0542-.46c-.03613-.16211-.07275-.334-.10791-.51465q-.10913-.54053-.18945-1.05469a6.45852,6.45852,0,0,1-.08106-1.001,2.32288,2.32288,0,0,1,.43262-1.40528,2.47036,2.47036,0,0,1,1.62109-.81054c.32422.03613.64844.07324.97266.1084a8.3001,8.3001,0,0,0,.91846.05371c.46777.03613.92724.07324,1.37793.10839a4.341,4.341,0,0,1,1.32422.32422,5.98563,5.98563,0,0,1,1.37792-.48632,6.80424,6.80424,0,0,1,1.48584-.16211h.35157a1.72478,1.72478,0,0,1,.40527.05371,5.73518,5.73518,0,0,1,1.08057.21679,5.158,5.158,0,0,1,1.02685.43164A6.53783,6.53783,0,0,1,246.52392,1.71164Z"/><path class="cls-1" d="M293.67285,1.60325c.03564.03613.07178.07324.10791.10839a.58714.58714,0,0,0,.1084.16211c.03515.03614.07177.07227.10791.1084a2.7305,2.7305,0,0,1,.16211.26953.61078.61078,0,0,1,.0542.27051v.32422a4.78933,4.78933,0,0,0,.02685.4873c.01758.18067.02686.34278.02686.48731q.05346.271.1084.51367c.03515.16211.07177.31641.10791.46q.05346.4878.13525.97364a5.64188,5.64188,0,0,1,.08105.91992,2.83222,2.83222,0,0,1-.1621.94726,2.78038,2.78038,0,0,1-.54053.89258q.05346.43359.13525.89356c.05371.30664.11621.60351.189.89257a2.40172,2.40172,0,0,0,.02685.35059,2.00625,2.00625,0,0,0,.08106.35254q.10766.64893.18945,1.29883a10.1145,10.1145,0,0,1,.08105,1.24414,6.1311,6.1311,0,0,1-.18945,1.542,5.26786,5.26786,0,0,1-.62109,1.43359,7.19969,7.19969,0,0,1,.35107.97461,6.30792,6.30792,0,0,1,.189.97364,7.48318,7.48318,0,0,1,.13525,1.02832q.02637.48779.02686.97461,0,.75732-.05371,1.541c-.03663.52441-.07276,1.03711-.1084,1.542q-.10841.813-.16211,1.59668-.05421.78516-.05371,1.59571v.7041a.4882.4882,0,0,0-.24317.16308,1.63783,1.63783,0,0,1-.13525.16211,1.43574,1.43574,0,0,0-.08106.18848.59.59,0,0,0-.02685.19043.79491.79491,0,0,0,.10791.40527q.10767.189.21631.40625a2.02582,2.02582,0,0,0,.16211.43262.967.967,0,0,1,.10791.43262q.05346.32519.08105.7041.02637.37939.08106.75683a3.88945,3.88945,0,0,1,.08105.43262,4.0547,4.0547,0,0,1,.02686.48731q.05346.3794.08105.78418.0271.40722.02734.78515a7.02334,7.02334,0,0,1-.18945,1.65039,4.466,4.466,0,0,1-.72949,1.542,11.35334,11.35334,0,0,1,.91894,3.2461v.5957a6.68714,6.68714,0,0,1-.18945,1.623,4.4892,4.4892,0,0,1-.62109,1.40723,2.31164,2.31164,0,0,1-1,.51367,5.00854,5.00854,0,0,1-1.16162.13476h-.32422a1.01429,1.01429,0,0,1-.32422-.05371,2.26273,2.26273,0,0,1-.37842-.02734,2.07082,2.07082,0,0,1-.32422-.08106,1.72027,1.72027,0,0,0-.64844-.43261,2.2328,2.2328,0,0,0-.70263-.10743,2.89007,2.89007,0,0,0-.86475.13477c-.28857.08984-.57666.18945-.86426.29687q-.48631.1626-.91894.29786a2.89412,2.89412,0,0,1-.86426.13476,1.99512,1.99512,0,0,1-.9458-.24316,2.71713,2.71713,0,0,1-.8916-.83789,2.8166,2.8166,0,0,0-.54053-.67481q-.32446-.29736-.64844-.62207a.10691.10691,0,0,1-.08105-.02636.10849.10849,0,0,1-.02686-.08106,7.61754,7.61754,0,0,1-1.08105-1.081,2.3984,2.3984,0,0,1-.48633-1.56739A5.40948,5.40948,0,0,1,278.542,37.9177a17.41942,17.41942,0,0,1-1.459-2.16113,23.13374,23.13374,0,0,0-1.43213-2.1084,5.27573,5.27573,0,0,0-2.18848-1.6211,2.959,2.959,0,0,0-.91895-1.08007,2.24071,2.24071,0,0,0-1.35107-.43262,3.89,3.89,0,0,0-.54,1.59375,14.89873,14.89873,0,0,0-.1084,1.81055v.59472a15.99536,15.99536,0,0,1-.08105,1.64844,4.64583,4.64583,0,0,1-.40528,1.48535q.32446.70313.59473,1.459a4.49109,4.49109,0,0,1,.27,1.51367,3.22771,3.22771,0,0,1-.08105.72949,3.05443,3.05443,0,0,1-.24317.67578,3.39416,3.39416,0,0,1,.16211.5127,2.39041,2.39041,0,0,1,.0542.51367,1.59691,1.59691,0,0,1-.1084.59472,1.64381,1.64381,0,0,1-.37793.54,1.47056,1.47056,0,0,0-.29736.02735.97428.97428,0,0,0-.24316.081,3.772,3.772,0,0,1-.43213.08106,3.7014,3.7014,0,0,0-.43262.08105q-.37866.05419-.72949.08106c-.23487.01855-.45948.02636-.6753.02636a4.337,4.337,0,0,1-1.27-.18847,3.43938,3.43938,0,0,1-1.16162-.62207,2.36567,2.36567,0,0,1-.91894.59472,2.437,2.437,0,0,1-1.02686.1084h-.43213a1.7646,1.7646,0,0,1-.43213-.05469h-.91894a4.27806,4.27806,0,0,0-.45947.02735c-.16211.01855-.3335.0459-.51319.081a3.57046,3.57046,0,0,1-.43213.08106,3.01077,3.01077,0,0,1-.37841.02734,1.77546,1.77546,0,0,1-.43213.05371h-.43262a7.077,7.077,0,0,1-1.729-.21582,3.73822,3.73822,0,0,1-1.51319-.75683,6.8441,6.8441,0,0,1-.32422-1.26954,8.63338,8.63338,0,0,1-.10791-1.3789v-.32422a1.021,1.021,0,0,1,.05371-.32422,6.53039,6.53039,0,0,1,.24317-1.29687,7.06437,7.06437,0,0,1,.45947-1.18848q-.16187-.81006-.32422-1.64844-.16186-.83643-.27-1.70215-.05493-.43212-.08105-.83789-.02784-.40429-.02735-.83691a13.52159,13.52159,0,0,1,.13526-1.919,7.73922,7.73922,0,0,1,.51318-1.86425,6.87555,6.87555,0,0,1-.56738-1.6211,11.30362,11.30362,0,0,1-.24316-1.72949v-.70215a12.28206,12.28206,0,0,1,.18945-2.18848q.18824-1.05321.40527-1.918a2.305,2.305,0,0,1-.08105-.29786,1.19493,1.19493,0,0,1-.02735-.24316q-.16187-.81006-.32422-1.56738a6.9645,6.9645,0,0,1-.1621-1.459,2.73585,2.73585,0,0,1,.02734-.40527,2.93044,2.93044,0,0,0,.02685-.40527,4.45978,4.45978,0,0,1,.189-.78321,6.36521,6.36521,0,0,1,.35156-.83789,5.56893,5.56893,0,0,1-.54053-1.4375,6.65588,6.65588,0,0,1-.1621-1.43945q0-.542.05419-1.11133a10.62548,10.62548,0,0,1,.16211-1.11328q.05274-.542.10791-1.1123c.03565-.38086.0542-.751.0542-1.11329a6.86619,6.86619,0,0,0-.21631-1.709,3.8931,3.8931,0,0,0-.81054-1.54688,1.56209,1.56209,0,0,1,.16211-.706,5.96663,5.96663,0,0,1,.37841-.65039c.07178-.07324.14307-.1543.21583-.24414a1.46844,1.46844,0,0,0,.1621-.24512,3.73942,3.73942,0,0,1,.86475-.40527c.28809-.08985.57568-.1709.86475-.24317a3.39057,3.39057,0,0,0,.43213-.02734,3.55758,3.55758,0,0,1,.43212-.02637,5.22506,5.22506,0,0,1,1.48633.21582,10.724,10.724,0,0,1,1.43213.54,1.97587,1.97587,0,0,1,.99951-.70215,4.60674,4.60674,0,0,1,1.27-.16211h.35108a1.13325,1.13325,0,0,1,.35156.05372h.37793a1.01572,1.01572,0,0,1,.32422.05468,2.38923,2.38923,0,0,1,.37842.02637,1.91243,1.91243,0,0,0,.32421.02734,1.168,1.168,0,0,0,.24317.27051.95441.95441,0,0,0,.29736.16211.46368.46368,0,0,0,.24317.13477,1.12891,1.12891,0,0,0,.78369-.1084q.26953-.1333.54-.24317A6.1032,6.1032,0,0,1,267.707,1.82a1.65141,1.65141,0,0,1,.56738-.1084,1.02675,1.02675,0,0,1,.40527.08106,1.97767,1.97767,0,0,1,.40528.24316c.1084.07227.207.13477.29736.18946.08936.05371.189.11718.29736.18847A10.3474,10.3474,0,0,1,271.54394,4.197a3.51088,3.51088,0,0,1,.83741,2.26953v.21679a3.36512,3.36512,0,0,0,.37841.21582,3.80722,3.80722,0,0,1,.37842.2168,7.81757,7.81757,0,0,1,1.7832,1.5127,3.56066,3.56066,0,0,1,.91846,2.05371,4.75037,4.75037,0,0,1,1.05371.64844c.30567.25195.603.50488.8916.75585.03565.03711.08106.08106.13526.13575.0542.05371.09863.09961.13525.13476.25147.21582.49463.42383.72949.6211a3.82515,3.82515,0,0,0,.7837.51367,2.72962,2.72962,0,0,0,.59423-1.02637,3.752,3.752,0,0,0,.16211-1.08105,4.8456,4.8456,0,0,0-.0542-.7295c-.03613-.23339-.07226-.47754-.10791-.72949v-.1084c-.03613-.251-.06347-.51269-.08105-.7832-.01856-.27051-.02686-.53125-.02686-.7832a5.18963,5.18963,0,0,1,.05371-.78418,2.129,2.129,0,0,1,.27051-.72949,3.46209,3.46209,0,0,1-.40527-1.24317q-.0813-.64746-.13526-1.35058a4.27794,4.27794,0,0,0-.02685-.459,4.04722,4.04722,0,0,1-.02734-.46,1.01182,1.01182,0,0,1-.05372-.32422,1.03568,1.03568,0,0,0-.05419-.32422,5.38927,5.38927,0,0,1,1.94531-.918,9.29781,9.29781,0,0,1,2.26953-.2705,12.78682,12.78682,0,0,1,1.8374.13476,10.2368,10.2368,0,0,1,1.72949.40527h.21582c.21631,0,.42334-.00781.62159-.02636q.29663-.02784.56738-.02735c.21631-.03515.42334-.07226.62158-.10839q.29662-.05274.62158-.10743.594-.05419,1.21582-.13574a9.85822,9.85822,0,0,1,1.27-.081h.51319a1.88662,1.88662,0,0,1,.45947.05468C293.6001,1.532,293.63672,1.56809,293.67285,1.60325Z"/><path class="cls-1" d="M331.41894,2.17063a5.0505,5.0505,0,0,0,1.37793.18945,7.03254,7.03254,0,0,0,1.75635-.21582,10.94171,10.94171,0,0,0,1.59424-.541h2.32373a14.46541,14.46541,0,0,1,2.18848.16211,4.23409,4.23409,0,0,1,1.91845.81054,13.18561,13.18561,0,0,1,2.24268-.59375,14.06614,14.06614,0,0,1,2.4585-.21679h.48632a9.87854,9.87854,0,0,1,2.6211.46,7.16187,7.16187,0,0,1,2.24267,1.16113,1.1304,1.1304,0,0,1,.21582-.08106,1.16656,1.16656,0,0,1,.27051-.02636h.43213a3.74334,3.74334,0,0,1,2.05371.624,19.59094,19.59094,0,0,1,1.89111,1.38477,1.90188,1.90188,0,0,0,.21631.19043,1.974,1.974,0,0,1,.21631.19043,2.793,2.793,0,0,0,.35108.29882q.189.13477.35107.24317a.48424.48424,0,0,0-.05371.21777v.2168a.92187.92187,0,0,0,.24316.67969,3.67284,3.67284,0,0,0,.56739.46093q.26952.21827.51318.43457a.95054.95054,0,0,1,.29736.59766,2.91948,2.91948,0,0,1,2.16162,1.33008,13.85694,13.85694,0,0,1,1.189,2.3623q.10767.271.189.51563c.0542.16308.09864.3164.13526.46094q.10766.27246.189.5166a3.48576,3.48576,0,0,0,.189.46093q.05346.37939.13525.75684c.0542.25195.09863.52246.13526.81055a4.00475,4.00475,0,0,1,.08105.43261,3.43885,3.43885,0,0,0,.081.43164c.03516.28907.07178.56739.10791.8379a6.407,6.407,0,0,1,.0542.83789,4.26337,4.26337,0,0,1-.24316,1.40429,3.41588,3.41588,0,0,1-.83789,1.29785,1.21067,1.21067,0,0,0,.02734.24317,1.28185,1.28185,0,0,1,.02686.24316.95425.95425,0,0,1,.0542.29688v.24316a6.7392,6.7392,0,0,1-.78369,3.13379,23.87336,23.87336,0,0,1-1.70215,2.81055.40164.40164,0,0,0-.08106.1084.43773.43773,0,0,1-.08105.10742,1.5589,1.5589,0,0,0-.86475.46,3.35671,3.35671,0,0,0-.54053.7832.087.087,0,0,0-.08105.05371.237.237,0,0,0-.02686.1084,5.26921,5.26921,0,0,1-.56738.75684,1.153,1.153,0,0,1-.8916.32422h-.08105c-.01856,0-.0459-.01758-.08106-.05469h-.16211a3.02242,3.02242,0,0,1-1.189,1.72949,11.33883,11.33883,0,0,1-1.83741,1.02637c-.10791.03711-.22558.081-.35107.13574a2.66553,2.66553,0,0,1-.40527.13477,1.22469,1.22469,0,0,1-.35157.16211,1.26325,1.26325,0,0,0-.35107.1621,7.96112,7.96112,0,0,0-1.05371-.24316,6.4558,6.4558,0,0,0-1-.081,6.03108,6.03108,0,0,0-1.26953.13476,9.56181,9.56181,0,0,0-1.21631.35156c-.21582.07325-.42383.1543-.62109.24317-.19873.09082-.40528.18945-.62159.29785-.25244.03613-.51318.0625-.78369.08105-.27.01856-.5498.02637-.8374.02637a11.7059,11.7059,0,0,0-1.64844.2168,1.77525,1.77525,0,0,0-1.21582.918q-.0542.3794-.08105.75683c-.01856.252-.02686.52246-.02686.81055,0,.32422.0083.6582.02686,1,.01806.34277.04492.6748.08105.999,0,.32422.00879.65821.02735,1q.02636.51417.02685,1,0,.64893-.0542,1.26953a6.87386,6.87386,0,0,1-.21582,1.21582,2.12264,2.12264,0,0,1-.48681.27051,3.01072,3.01072,0,0,1-.54.16211h-.37842a3.24948,3.24948,0,0,1-.72949-.08105c-.23487-.05371-.44141-.09864-.62159-.13477a2.03684,2.03684,0,0,0-.56738-.81055,1.0463,1.0463,0,0,0-.62158-.21679,1.68137,1.68137,0,0,0-.64844.13574q-.32373.13476-.64844.29688a3.40914,3.40914,0,0,1-.67529.35156,2.025,2.025,0,0,1-.72949.13476,1.45965,1.45965,0,0,1-.40527-.05371,2.3182,2.3182,0,0,1-.40528-.16211,2.77984,2.77984,0,0,1-.40527-.02734,2.5747,2.5747,0,0,0-.35156-.02734,1.71843,1.71843,0,0,0-.40528-.05372h-.40527q-.6482,0-1.29688.05372c-.43212.03613-.86474.07324-1.29687.10839a3.57046,3.57046,0,0,1-.43213.08106,3.398,3.398,0,0,1-.43262.02734c-.28857.03614-.57666.0625-.86425.08106-.28907.01855-.57715.02636-.86475.02636h-.45947a1.881,1.881,0,0,1-.45948-.05371,3.83046,3.83046,0,0,1-.48632-.02734c-.144-.01758-.30616-.04492-.48633-.08106a2.73021,2.73021,0,0,1-.59424-.8916,5.41655,5.41655,0,0,1-.32422-1.05371,4.05178,4.05178,0,0,0-.02685-.48633,3.28317,3.28317,0,0,1-.02735-.43164,3.76612,3.76612,0,0,1,.02735-.4873,3.47043,3.47043,0,0,1,.081-.43164,2.99142,2.99142,0,0,0,.21582-.75684,5.39452,5.39452,0,0,0,.0542-.75683q0-.32373-.02686-.67481-.02783-.35156-.08105-.72949c-.03662-.2168-.06348-.44141-.08106-.67578-.019-.23438-.02734-.459-.02734-.67578a4.42919,4.42919,0,0,1,.1084-.97266,5.08847,5.08847,0,0,1,.32422-.97266.97444.97444,0,0,0,.29687-.32421.8318.8318,0,0,0,.08106-.37793.80749.80749,0,0,0-.10791-.40528,1.54326,1.54326,0,0,1-.16211-.40527,1.61718,1.61718,0,0,1-.24317-.46,1.4459,1.4459,0,0,1-.08105-.459q-.05419-.59472-.08106-1.16308a7.47037,7.47037,0,0,1,.02686-1.11035q0-1.19092.08105-2.35547.0813-1.16308.13526-2.30078.10767-1.13673.16211-2.24707.05346-1.10889.0542-2.2461c0-.72265-.02735-1.43457-.08106-2.13965a11.74833,11.74833,0,0,0-.35156-2.084,9.21689,9.21689,0,0,0,.16211-.97461,8.04216,8.04216,0,0,0,.0542-.86621,8.94541,8.94541,0,0,0-.0542-.97461q-.0542-.48633-.10791-.97461a3.37077,3.37077,0,0,1-.08106-.459,4.04834,4.04834,0,0,1-.02685-.46094,4.17971,4.17971,0,0,0-.02734-.46,3.95167,3.95167,0,0,1,0-.91992,4.16928,4.16928,0,0,0,.02734-.46094c.07178-.28906.16211-.58594.27-.89356a6.18094,6.18094,0,0,1,.43213-.94726,11.89663,11.89663,0,0,1-.35108-1.48828,9.37491,9.37491,0,0,1-.13525-1.59766,8.35511,8.35511,0,0,1,.0542-.9209q.05346-.48633.10791-.97363a5.12981,5.12981,0,0,1,1.24316-1,2.97267,2.97267,0,0,1,1.51319-.40527h.21582a.49453.49453,0,0,1,.21631.05371.918.918,0,0,1,.2163.02734,1.155,1.155,0,0,1,.21582.08106A3.93846,3.93846,0,0,0,331.41894,2.17063Zm15.50928,11.96973A4.51863,4.51863,0,0,0,345.064,13.0593a4.3645,4.3645,0,0,0-1.459,2.18945,9.91469,9.91469,0,0,0-.32422,2.56641v.56738a2.87649,2.87649,0,0,0,.05371.56739v.59472q0,.43213.02735.83692.02635.40575.02685.83789v.64843c.03565.39747.15283.64844.35107.75684a1.38336,1.38336,0,0,0,.67579.16211h.24316a.53885.53885,0,0,0,.24316-.05371h.81055a2.55517,2.55517,0,0,0,.29688.08105.47757.47757,0,0,1,.24365.13477.45435.45435,0,0,0,.08105-.1084.41391.41391,0,0,1,.08106-.10742,17.28568,17.28568,0,0,0,1.40478-2.27051,5.43092,5.43092,0,0,0,.64844-2.53906,4.48794,4.48794,0,0,0-.10791-.97266,3.65887,3.65887,0,0,0-.37842-.97265A3.78367,3.78367,0,0,0,346.92822,14.14036Z"/><path class="cls-1" d="M383.59326,1.54954a.44726.44726,0,0,1-.08105.10839l-.08106.16211a.36835.36835,0,0,0-.02686.16211v.05371c.21631-.03515.44092-.08105.6753-.13476.23388-.05469.45947-.11719.67578-.18946.28809-.07226.585-.14355.8916-.21582a4.10131,4.10131,0,0,1,.9458-.10839,4.52294,4.52294,0,0,1,.51319.02734,1.3634,1.3634,0,0,1,.45947.13477,1.3704,1.3704,0,0,0,.45947.459.94289.94289,0,0,0,.459.13574,1.65545,1.65545,0,0,0,.56739-.1084,3.30256,3.30256,0,0,0,.56738-.2705h.0542c.21631-.07129.42285-.14356.62158-.21582a1.64909,1.64909,0,0,1,.56738-.1084,4.76192,4.76192,0,0,1,.51319.02734,4.51312,4.51312,0,0,0,.51367.02734,1.65962,1.65962,0,0,0,.40527.05372h.40528a12.24781,12.24781,0,0,1,2.86377.54,2.91826,2.91826,0,0,1,1.8916,1.89161.43079.43079,0,0,0,.189.05371h.13526a.80452.80452,0,0,0,.40527-.10743c.12549-.07226.24316-.14355.35107-.21679.07178-.03516.15284-.08106.24317-.13477q.13476-.08056.24316-.13476a2.9489,2.9489,0,0,1,1.8916.81445,10.03537,10.03537,0,0,1,1.24268,1.51953c.03564.03711.0625.06445.08105.082a.11221.11221,0,0,1,.02735.08106q.48633.65185.99951,1.25a2.56665,2.56665,0,0,0,1.32373.81347,2.84781,2.84781,0,0,0,.40527.81543q.29664.43361.62159.86817.37793.54345.70263,1.11426a2.333,2.333,0,0,1,.32422,1.167,1.68918,1.68918,0,0,1-.13525.65136,1.81443,1.81443,0,0,1-.51319.65235v.2168q0,.37938.21631.48925a1.91,1.91,0,0,0,.48633.16211h.05371c.1084.03711.22461.082.35156.13672a.59689.59689,0,0,1,.29688.29785,4.27,4.27,0,0,1,.35156,1.24317,10.49729,10.49729,0,0,1,.08106,1.29687,9.20783,9.20783,0,0,1-.32422,2.43164,17.75718,17.75718,0,0,1-.75684,2.21582.26728.26728,0,0,0-.13476.05371.33391.33391,0,0,1-.18946.05371,2.706,2.706,0,0,0-.40527.37891,1.02551,1.02551,0,0,0-.24316.48633.86021.86021,0,0,0,.02734.21582.9783.9783,0,0,0,.08105.21582,1.18843,1.18843,0,0,1,.29688.46,1.60606,1.60606,0,0,1,.08105.5127,1.52461,1.52461,0,0,1-.24316.78418q-.24316.40429-.51318.7832c-.03614.03613-.07276.07226-.10791.1084l-.1084.10742q-.271.3252-.51319.67578a2.6907,2.6907,0,0,0-.35156.67578,4.98656,4.98656,0,0,1-1.40478.919,11.47648,11.47648,0,0,1-1.56739.54c-.10791.03613-.19824.06347-.27.08105a1.12244,1.12244,0,0,0-.21631.08106c-.21582.07226-.42382.14453-.62109.21582-.19873.07324-.40527.14453-.62158.21679a.24527.24527,0,0,0-.13525.13477.58345.58345,0,0,0-.02686.18945v.16211a.42362.42362,0,0,0,.02686.13477.1222.1222,0,0,1-.02686.13476,1.72266,1.72266,0,0,0,.9458.8916,7.90466,7.90466,0,0,0,1.21582.29785,6.96523,6.96523,0,0,1,1.05371.18848,1.66714,1.66714,0,0,1,.8916.62207A3.77742,3.77742,0,0,1,406.479,30.8386c.17969,0,.36914.00976.56738.02734a2.06207,2.06207,0,0,1,.56739.13477,1.63045,1.63045,0,0,1,.35107.75683,4.95926,4.95926,0,0,1,.08106.918v.32422a1.03981,1.03981,0,0,1-.05371.32422,3.97143,3.97143,0,0,1-.0542.64844c-.03614.21679-.07276.43261-.10791.64941a1.14085,1.14085,0,0,0-.29737.48633,1.8693,1.8693,0,0,0-.08105.54,2.65671,2.65671,0,0,0,.08105.64844c.0542.21582.1167.43261.189.64843q.10767.32373.18945.67578a3.01987,3.01987,0,0,1,.08106.67481,1.95515,1.95515,0,0,1-.48633,1.29687.3479.3479,0,0,1-.16211.16211,1.86754,1.86754,0,0,1-.27051.1084,2.02616,2.02616,0,0,0-.35107.21582.46223.46223,0,0,0-.13526.37891v.10742a.405.405,0,0,0,.0542.16211,2.34924,2.34924,0,0,1,.86475.91894,2.51346,2.51346,0,0,1,.27,1.13477,2.93028,2.93028,0,0,1-.02686.40527,1.34949,1.34949,0,0,1-.13525.40528,2.91065,2.91065,0,0,1-1.40479.83789,6.56024,6.56024,0,0,1-1.78369.24316h-.43213a1.76371,1.76371,0,0,1-.43213-.05371,14.26356,14.26356,0,0,1-1.51318-.18945q-.75732-.13477-1.35107-.29688a1.45967,1.45967,0,0,0-.48633-.32422,1.44454,1.44454,0,0,0-.54053-.10839,1.2206,1.2206,0,0,0-.37793.05371.68532.68532,0,0,0-.27051.16211,3.88273,3.88273,0,0,1-.8374.35156,2.38847,2.38847,0,0,1-.9458.081,3.15439,3.15439,0,0,1-.56738-.05371q-.29738-.05419-.56739-.1084a10.28854,10.28854,0,0,1-1.189-.40527q-.59546-.24316-1.189-.51367a2.4,2.4,0,0,0-.459-.26953c-.16211-.07227-.31592-.14356-.45947-.2168a2.57455,2.57455,0,0,1-.21631-.24316c-.07227-.08887-.144-.18848-.21582-.29688a10.59359,10.59359,0,0,0-1.10791-1.05371,2.84729,2.84729,0,0,0-1.48633-.62207q-.21606-.21532-.40527-.43164-.18971-.21534-.40528-.43262c-.03613,0-.05371-.00879-.05371-.02734,0-.01758-.01855-.02637-.0542-.02637a16.1228,16.1228,0,0,0-1.37793-1.32422,5.17375,5.17375,0,0,0-1.64843-.94531,1.224,1.224,0,0,0-.6211.72949,5.58535,5.58535,0,0,0-.18945.8916c-.03613.21582-.07276.41407-.10791.59375a1.68809,1.68809,0,0,1-.21631.541,2.73085,2.73085,0,0,1,.40527.86426,3.83219,3.83219,0,0,1,.13526,1.02734v.24317a.54266.54266,0,0,1-.0542.24316,1.55237,1.55237,0,0,1-.02686.29687,1.00889,1.00889,0,0,1-.08105.24317,1.24653,1.24653,0,0,1-.45947.64844,4.76741,4.76741,0,0,1-.7837.48632.42624.42624,0,0,0-.16211.05371.47933.47933,0,0,1-.21582.05469h-.43261a8.384,8.384,0,0,1-1.54-.13574,2.366,2.366,0,0,1-1.32373-.7832,6.86238,6.86238,0,0,1-1.29688.43261,6.51238,6.51238,0,0,1-1.45947.16211A5.34415,5.34415,0,0,1,376.001,43.781a3.91348,3.91348,0,0,1-1.29687-.62109.15421.15421,0,0,1-.10791-.05469h-.16211a.72145.72145,0,0,0-.43262.16211,1.90594,1.90594,0,0,0-.37842.3789,2.39186,2.39186,0,0,1-.35107.37793.68111.68111,0,0,1-.45947.16211h-1.35059a7.65022,7.65022,0,0,1-2.05371-.37793,2.26415,2.26415,0,0,1-1.40478-1.40527,7.2316,7.2316,0,0,1-.16211-.83789,5.82139,5.82139,0,0,1-.0542-.7832,8.12707,8.12707,0,0,1,.13525-1.48633q.134-.72949.29688-1.43164.16258-.81153.29736-1.56738a8.64652,8.64652,0,0,0,.13525-1.5127c0-.2168-.00927-.44141-.02734-.67578a2.84521,2.84521,0,0,0-.13477-.67578,3.57563,3.57563,0,0,0-.18945-.67578,3.49619,3.49619,0,0,0-.35107-.67481c-.03614-.14355-.06348-.27051-.08106-.3789a1.90364,1.90364,0,0,1-.02685-.32422,2.03783,2.03783,0,0,1,.16211-.81153,7.51013,7.51013,0,0,1,.37793-.75879,1.95694,1.95694,0,0,1,.16211-.35156c.07177-.126.14355-.26172.2163-.40527a2.68234,2.68234,0,0,0,.08106-.29883,1.54091,1.54091,0,0,0,.02685-.29785.91314.91314,0,0,0-.02685-.21582.86706.86706,0,0,1-.02686-.2168,2.92546,2.92546,0,0,0-.2705-.43262,2.49391,2.49391,0,0,0-.43213-.43457q0-.48632-.02686-.94726c-.01855-.30567-.02734-.60449-.02734-.89258,0-.32422-.00928-.64062-.02686-.94727-.01855-.30664-.02685-.60546-.02685-.89355a15.66522,15.66522,0,0,1,.21582-2.626,6.67224,6.67224,0,0,1,.91894-2.41015.83383.83383,0,0,0,0-.59473,1.7277,1.7277,0,0,0-.32422-.43359c-.03662-.03516-.06347-.0625-.08105-.08106a.11438.11438,0,0,0-.08106-.02734,2.11422,2.11422,0,0,0-.24316-.29785.73027.73027,0,0,1-.18945-.35157,1.21058,1.21058,0,0,1,.02734-.24316,1.57352,1.57352,0,0,0,.02686-.29883v-1.001a1.91538,1.91538,0,0,0-.0542-.46v-.4873c0-.25293-.00928-.50488-.02686-.75879-.01855-.252-.02685-.4873-.02685-.7041a6.725,6.725,0,0,1,.21582-1.73242,2.32521,2.32521,0,0,1,.86474-1.29981V9.4509a1.0131,1.0131,0,0,0-.21631-.64941,2.392,2.392,0,0,0-.54-.48828.70124.70124,0,0,1-.18945-.13477.72853.72853,0,0,0-.189-.13476,3.58852,3.58852,0,0,0-.02686-.4336,3.398,3.398,0,0,1-.02734-.43262q-.05421-.43359-.08106-.86621c-.01855-.28906-.02685-.57812-.02685-.86718a4.52507,4.52507,0,0,1,.02685-.51368c.01807-.1621.04492-.335.08106-.51562a1.72909,1.72909,0,0,1,.08105-.48633,3.00037,3.00037,0,0,1,.18945-.4873c.03516-.03614.0625-.0625.08106-.08106a.11257.11257,0,0,0,.02685-.081,8.21623,8.21623,0,0,1,.94581-.81055,1.83056,1.83056,0,0,1,1.10742-.37891,1.28745,1.28745,0,0,1,.35156.05469,2.397,2.397,0,0,1,.40527.16211.71609.71609,0,0,0,.32422.26953,1.01772,1.01772,0,0,0,.32422.05469.946.946,0,0,0,.45947-.13574,1.77631,1.77631,0,0,0,.40528-.29688.43927.43927,0,0,1,.10791-.08105.41864.41864,0,0,0,.10791-.08106c.1084-.07226.207-.13476.29736-.18945a.48349.48349,0,0,1,.24316-.08105q.75587-.05274,1.48633-.08106.72949-.02637,1.48584-.02637a13.183,13.183,0,0,1,2.40479.21582,5.23529,5.23529,0,0,1,2.08056.86426,2.6419,2.6419,0,0,1,.97266-.7832,7.68409,7.68409,0,0,1,1.13477-.40527,1.01576,1.01576,0,0,1,.24316-.08106,2.45054,2.45054,0,0,0,.29736-.08105A.37146.37146,0,0,1,383.59326,1.54954Zm5.72852,11.32128a.10712.10712,0,0,1-.02735-.081.42317.42317,0,0,1-.08105-.1084.08786.08786,0,0,1,.02734-.1084q-.32447-.05273-.64844-.081c-.21631-.01758-.45117-.02637-.70263-.02637h-.48633a5.93985,5.93985,0,0,0-1.189.35059,2.95953,2.95953,0,0,0-1.08056.78418.52139.52139,0,0,0-.32422.21582.57845.57845,0,0,0-.1084.32422.56622.56622,0,0,0,.02734.18945,1.37746,1.37746,0,0,0,.08106.18945.3286.3286,0,0,0,.05371.18848.27015.27015,0,0,1,.0542.13574c.03515.07227.07178.14356.10791.21582.03564.07227.07178.14453.1084.21582v1.94531q0,.86572-.08106,1.7295a3.979,3.979,0,0,1-.51367,1.62109c.03565.1084.08106.22559.13525.35156.0542.127.09864.24317.13526.35156q.26954.70167.51318,1.48536a4.17075,4.17075,0,0,1,.189,1.54v.29785a.97209.97209,0,0,1-.05371.29687,1.49822,1.49822,0,0,1-.02735.29688,2.66974,2.66974,0,0,1-.08105.29785.1825.1825,0,0,0-.05371.13476v.18946a.82544.82544,0,0,0,.37793.70215,5.88761,5.88761,0,0,0,.81054.48632.25071.25071,0,0,1,.1084.02735.22868.22868,0,0,0,.10791.02636,2.86238,2.86238,0,0,1,.51319.27051c.1621.1084.31494.21582.45947.32422a3.803,3.803,0,0,1,.35156-.40527q.18824-.189.40527-.40528a1.8745,1.8745,0,0,0,.29688-.24316l.24316-.24316a12.67894,12.67894,0,0,0,1.189-1.24317,2.36685,2.36685,0,0,0,.54053-1.5664v-.16211a.15419.15419,0,0,1-.0542-.1084v-.1084a3.46479,3.46479,0,0,0,.29736-.81055c.05371-.251.09863-.5039.13476-.75586v-.05468a6.688,6.688,0,0,1,.16211-.78321,4.40873,4.40873,0,0,1,.32471-.83789,4.87891,4.87891,0,0,1-.37842-1.32422c-.07275-.48632-.127-.98047-.16211-1.48535a15.83069,15.83069,0,0,0-.37841-2.29687,2.97374,2.97374,0,0,0-1.35108-1.81055C389.33008,12.9343,389.33935,12.88938,389.32178,12.87082Z"/><path class="cls-1" d="M435.76709,1.7927a3.56062,3.56062,0,0,1,.43261-.02734,1.22059,1.22059,0,0,1,.37793-.05372h.43262a7.85793,7.85793,0,0,1,2.729.48633A9.38778,9.38778,0,0,1,442.144,3.49485a.9109.9109,0,0,1,.21582.02734.85711.85711,0,0,0,.21631.02637.5212.5212,0,0,0,.24316.05469.97722.97722,0,0,1,.29737.05371,9.356,9.356,0,0,1,1.91845.542,2.46891,2.46891,0,0,1,1.37793,1.51465,6.524,6.524,0,0,1,3.62061,1.86719,10.02161,10.02161,0,0,1,2.32373,3.43554,11.33676,11.33676,0,0,1,2.45849,2.81446,6.25919,6.25919,0,0,1,1,3.57128v.59571a1.51237,1.51237,0,0,1-.02734.29687,2.61382,2.61382,0,0,1-.08105.29785,9.03929,9.03929,0,0,1,.91894,2.48926,13.29444,13.29444,0,0,1,.27,2.70606q0,.542-.02685,1.082-.02784.542-.08106,1.02832c-.03662.21582-.06348.43359-.08105.64941-.01856.21582-.0459.4336-.08106.64942a3.48734,3.48734,0,0,0-.08105.43261,3.39626,3.39626,0,0,0-.02735.43262,2.26378,2.26378,0,0,0-1.13476,1.40723,9.69581,9.69581,0,0,0-.27,1.78515c-.03613.3252-.07276.6416-.10791.94727a3.81929,3.81929,0,0,1-.21631.89258c-.25244.2539-.53223.55078-.83789.89355q-.45923.51417-.94531,1.001a15.92266,15.92266,0,0,1-1.37793,1.32617,9.75329,9.75329,0,0,1-1.48633,1.05469,8.748,8.748,0,0,1-2.64795,3.05859,14.82864,14.82864,0,0,1-3.62061,1.97461.67479.67479,0,0,0-.24316.05371c-.09033.03613-.189.07324-.29736.1084a.54894.54894,0,0,0-.24317-.05371h-.24316a1.84417,1.84417,0,0,0-.91846.24316q-.43286.24316-.86474.5127a.087.087,0,0,0-.08106.05469.087.087,0,0,1-.08105.05371c-.21582.14453-.41456.2705-.59424.37793a1.68224,1.68224,0,0,1-.59473.21679q-.43286.05421-.86426.10743a7.43584,7.43584,0,0,0-.86474.1621q-.81079.10987-1.59424.18946-.78369.08057-1.59424.18945-.43285,0-.8374.02637c-.27.01855-.54981.02734-.83789.02734q-.37866,0-.75635-.02734c-.25244-.01758-.48633-.044-.70264-.08106a3.55019,3.55019,0,0,1-.75634-.081q-.37868-.08057-.75684-.13477a2.19169,2.19169,0,0,0-1.02637-.459q-.54126-.082-1.13476-.13574c-.21631,0-.43262-.00782-.64844-.02637a2.747,2.747,0,0,1-.64893-.13574q-.43285-.10693-.8374-.21582c-.27-.07227-.5498-.14453-.8374-.2168a.18449.18449,0,0,0-.13526-.05469h-.13525a24.34727,24.34727,0,0,1-2.70166-.89258,4.034,4.034,0,0,1-2.05371-1.86621,6.76062,6.76062,0,0,1-4.3501-2.70507,25.76092,25.76092,0,0,1-2.56689-4.59961q-.10914-.21681-.21631-.46-.10841-.24316-.21582-.46094-.37866-.81006-.72949-1.56836a14.43849,14.43849,0,0,0-.78369-1.46094,6.28613,6.28613,0,0,1-.64844-1.8125,10.15072,10.15072,0,0,1-.16211-1.8125,14.18441,14.18441,0,0,1,.08105-1.51562q.0813-.75734.189-1.56934.05346-.75732.13525-1.51465a14.17989,14.17989,0,0,0,.08106-1.51465v-.35254a1.7129,1.7129,0,0,0-.0542-.40625,2.95125,2.95125,0,0,0-.02686-.40527,2.42461,2.42461,0,0,1-.02685-.35156q.26952-.48633.48632-.97363a8.65493,8.65493,0,0,0,.37793-1.02833.15812.15812,0,0,0,.0542-.10839.15776.15776,0,0,1,.0542-.1084,15.74127,15.74127,0,0,1,.86426-1.94727,4.4765,4.4765,0,0,1,1.40527-1.57031A5.10276,5.10276,0,0,1,415.01611,9.99a18.33457,18.33457,0,0,1,1.67529-1.67675,4.67736,4.67736,0,0,1,.56739-.48731,4.84516,4.84516,0,0,0,.56738-.4873,2.46956,2.46956,0,0,0,1.51318-.62207,8.85424,8.85424,0,0,0,1.189-1.27246q.16187-.21534.32422-.40528c.10791-.126.2163-.26172.32421-.40527a2.97782,2.97782,0,0,1,1.59424-.86621,15.19046,15.19046,0,0,1,1.81006-.2168,16.47787,16.47787,0,0,0,1.97266-.32422,2.95706,2.95706,0,0,0,1.64795-1.082,8.189,8.189,0,0,0,1.35107-.1084,12.61784,12.61784,0,0,0,1.24317-.2705q.26952-.05274.54-.10743c.18018-.03613.35987-.07226.54053-.10839.21631-.03516.44092-.07227.67529-.1084a4.90165,4.90165,0,0,1,.7295-.05371,4.8402,4.8402,0,0,1,1,.10839,4.41662,4.41662,0,0,1,1.05371.37793A3.93014,3.93014,0,0,1,435.76709,1.7927Zm-1.54,12.80762a.43135.43135,0,0,0-.13477-.02735h-.0542a3.1003,3.1003,0,0,0-.32422-.18945.95952.95952,0,0,1-.32421-.29688,7.52724,7.52724,0,0,0-2.89112,1.21582,15.20472,15.20472,0,0,0-2.459,2.18848,4.04058,4.04058,0,0,0-.08106.40527,2.80612,2.80612,0,0,0-.02685.40528v.32422a1.00382,1.00382,0,0,0,.0542.32422v1.32421a.91068.91068,0,0,1-.1084.40528,4.56714,4.56714,0,0,1-.05371.67578q-.05493.35155-.1084.72949-.0542.70166-.10791,1.459-.05419.75732-.0542,1.5664a11.31777,11.31777,0,0,0,.43262,3.13477,5.47566,5.47566,0,0,0,1.729,2.64746,3.67361,3.67361,0,0,1,.62158.16211,3.39457,3.39457,0,0,1,.56739.27051q.43212.16258.8916.29687a3.306,3.306,0,0,0,.9458.13574,2.0594,2.0594,0,0,0,.459-.05468c.16211-.03516.31494-.07129.45947-.10743a4.52139,4.52139,0,0,0,2.67481-1.67578,10.45141,10.45141,0,0,0,1.54053-2.75586,5.44129,5.44129,0,0,0,.32422-.94531c.07177-.30566.14355-.60352.21582-.8916q0-.37793.02734-.78418.02637-.4043.08105-.7832c0-.28809.00831-.56739.02686-.83789q.02637-.40431.08105-.83692v-.86523a15.32453,15.32453,0,0,0-.1621-2.26953,4.59517,4.59517,0,0,0-.75635-1.94532,2.0102,2.0102,0,0,1-.73-.459q-.29738-.29736-.56739-.62207a.04722.04722,0,0,1-.05371-.05371,4.67571,4.67571,0,0,0-.83789-.83789,1.86231,1.86231,0,0,0-1.16162-.35059A.34434.34434,0,0,0,434.22705,14.60032Z"/><path class="cls-1" d="M491.0747,1.52219a1.105,1.105,0,0,0,.27.02735.47539.47539,0,0,0,.21631.05371h.21631a2.80813,2.80813,0,0,0,.40527-.02637c.126-.01856.26074-.04492.40528-.08106a2.79765,2.79765,0,0,0,.40527-.02734,2.92767,2.92767,0,0,1,.40527-.02734h.189a.43906.43906,0,0,1,.18945.05468.77041.77041,0,0,1,.16211.02637.36048.36048,0,0,1,.16211.08106,1.80251,1.80251,0,0,1,1.13476,1.05859,4.73048,4.73048,0,0,1,.21583,1.43848v.81347a1.687,1.687,0,0,0-.05372.40723v.40723a4.36223,4.36223,0,0,0,.10791,1.0039,2.3975,2.3975,0,0,0,.43262.89453,2.28041,2.28041,0,0,0-.21631.67969A4.81636,4.81636,0,0,0,495.749,9.907q.0813.43506.13525.86816c.07178.32617.126.63281.16211.92285a7.09528,7.09528,0,0,1,.0542.86817,2.66639,2.66639,0,0,1-.35156,1.3291,2.46164,2.46164,0,0,1-1.32373,1.002q-.43359.05419-.8916.08106-.46.02783-.89161.02734-.86571,0-1.67529-.081-.81079-.082-1.62109-.18946a.85876.85876,0,0,1-.21631-.02734.91632.91632,0,0,0-.21631-.02637q-.91918-.10839-1.8374-.2168a16.35225,16.35225,0,0,0-1.89111-.10742q-.64893,0-1.29688.05371a9.62914,9.62914,0,0,0-1.35107.21582,7.20078,7.20078,0,0,0-2.67481.94629q-1.21582.7295-2.40478,1.54-.32446.271-.62159.48633-.29736.2168-.62158.43164a9.2208,9.2208,0,0,1-.21582,2q-.21679.97266-.43262,1.94531a2.01624,2.01624,0,0,0-.08105.35157,2.07411,2.07411,0,0,1-.08105.35058q-.21607.81153-.35108,1.6211a10.16135,10.16135,0,0,0-.13525,1.67578c0,.21582.0083.43164.02685.64843q.0271.32373.08155.64844a5.09454,5.09454,0,0,0,.8916,1.8916,15.7111,15.7111,0,0,0,1.37793,1.56641l.05371.05469q.32446.32373.64844.6748a7.88208,7.88208,0,0,1,.59472.72949,3.602,3.602,0,0,0,.40528.08106,2.78453,2.78453,0,0,0,.40527.02734,3.51966,3.51966,0,0,0,1.43213-.29687,2.88522,2.88522,0,0,0,1.10791-.83789v-.54a3.61926,3.61926,0,0,1,.05371-.59473V27.86692a5.47965,5.47965,0,0,0-.05371-.75684q-.05493-.91845-.18946-1.75683a5.916,5.916,0,0,0-.45947-1.54,1.92,1.92,0,0,1,.02735-.32422,2.04378,2.04378,0,0,1,.08105-.32422,2.84051,2.84051,0,0,1,.32422-1.05371,1.1905,1.1905,0,0,1,.91846-.6211,6.05083,6.05083,0,0,1,.97265-.13476q.48633-.02784,1.02686-.02734h1.02685a2.735,2.735,0,0,0,.54053.05371h.48633q.75587,0,1.459-.05371a6.37688,6.37688,0,0,0,1.40479-.27051,4.76574,4.76574,0,0,0,.51367.27051,2.3637,2.3637,0,0,0,.51318.1621,3.31587,3.31587,0,0,0,.48633.08106,4.76784,4.76784,0,0,0,.48633.02734,5.46952,5.46952,0,0,0,.9458-.08105c.30566-.05469.603-.11719.8916-.18945.28809-.03516.57569-.08106.86475-.13477a4.61522,4.61522,0,0,1,.86426-.08105,3.4578,3.4578,0,0,1,1.27.24316,2.69859,2.69859,0,0,1,1.16211.999c-.03663.2168-.06348.44141-.08106.67578-.01855.23438-.02734.459-.02734.67579a4.08779,4.08779,0,0,0-.05371.6748v.67578q0,1.18946.10791,2.35059.10765,1.16308.16211,2.35058a.16007.16007,0,0,1,.05419.1084v.16211q.10767,1.18946.189,2.43164.0813,1.24365.08105,2.48633,0,.81006-.0542,1.62109-.0542.81006-.1621,1.6211a2.99581,2.99581,0,0,0,.02734.37793,3.58471,3.58471,0,0,1,.02685.43261,1.20548,1.20548,0,0,1,.0542.37793v.43262a1.72157,1.72157,0,0,1,.05371.40527v.40528a12.20312,12.20312,0,0,1-.08105,1.40527,4.83923,4.83923,0,0,1-.29687,1.24219,3.81089,3.81089,0,0,1-1.83741,1.05371,9.11831,9.11831,0,0,1-2.10742.24316c-.28906,0-.57666-.00781-.86475-.02636-.28857-.01758-.57666-.02735-.86474-.02735q-.43287,0-.86475-.02734-.43286-.02637-.86426-.02637h-.45947a1.93033,1.93033,0,0,0-.45947.05371,4.27646,4.27646,0,0,0-.459.02735,3.52068,3.52068,0,0,0-.45948.081,1.67532,1.67532,0,0,1-.40527.05371H487.562a8.25159,8.25159,0,0,1-1.16162-.08105q-.56763-.08056-1.16163-.18946-.54126-.10692-1.10791-.18847a8.11928,8.11928,0,0,0-1.16211-.08106,6.66813,6.66813,0,0,0-1.05371.08106,3.6181,3.6181,0,0,0-1.05371.35058.60508.60508,0,0,0-.189.02735.58719.58719,0,0,1-.18945.02734H480.105a7.36881,7.36881,0,0,1-1.27-.1084q-.62183-.10839-1.21582-.27051a1.57506,1.57506,0,0,1-.37842-.05371c-.14453-.03515-.27-.07226-.37842-.10839q-.43286-.05274-.81055-.10743a5.72374,5.72374,0,0,0-.81054-.05468,4.7734,4.7734,0,0,0-.7295.05468,5.88265,5.88265,0,0,0-.72949.16211,9.76614,9.76614,0,0,1-5.2417-1.73144,24.18829,24.18829,0,0,1-4.21533-3.626,16.47615,16.47615,0,0,1-3.86377-5.2207,30.174,30.174,0,0,1-2.08008-5.97949q-.05493-.26953-.1084-.54c-.03613-.18067-.07275-.36133-.10791-.542a8.27921,8.27921,0,0,0,.16211-1.623V22.59739c0-.28809.0083-.56836.02686-.83789q.02711-.40576.02734-.83985c.03516-.252.08106-.52246.13477-.81152.0542-.28809.1167-.55859.18945-.81152a5.88979,5.88979,0,0,0,.8916-1.8125q.29591-1.0005.51319-2.0293v-.08106c0-.01757.01757-.04394.0542-.081a19.48153,19.48153,0,0,1,1.02636-3.29981,4.29244,4.29244,0,0,1,2.54-2.32714,7.48144,7.48144,0,0,1,2.67481-3.32813,14.06405,14.06405,0,0,1,3.918-1.97461c.14355-.03515.28808-.07226.43212-.1084.14356-.03515.28809-.07129.43262-.1084a8.9675,8.9675,0,0,1,2.89111-1.4873,23.56986,23.56986,0,0,1,3.37745-.78516c.21582-.03515.43213-.07226.64843-.10839q.32373-.05274.64844-.10743a15.92779,15.92779,0,0,1,1.81006-.21679q.89209-.05274,1.75635-.05371h.97265a9.01678,9.01678,0,0,1,.97266.05371h.97314q.70167.05419,1.43165.081.72948.02784,1.48632.02735.6482,0,1.32373-.02735.6753-.02637,1.37793-.081A1.00725,1.00725,0,0,0,491.0747,1.52219Z"/><path class="cls-1" d="M517.74267,1.54954a.44726.44726,0,0,1-.08105.10839l-.08106.16211a.36837.36837,0,0,0-.02685.16211v.05371c.2163-.03515.44091-.08105.67529-.13476.23389-.05469.45947-.11719.67578-.18946.28809-.07226.585-.14355.8916-.21582a4.10137,4.10137,0,0,1,.9458-.10839,4.52294,4.52294,0,0,1,.51319.02734,1.36333,1.36333,0,0,1,.45947.13477,1.3704,1.3704,0,0,0,.45947.459.9429.9429,0,0,0,.459.13574,1.65544,1.65544,0,0,0,.56738-.1084,3.30256,3.30256,0,0,0,.56738-.2705h.0542c.21631-.07129.42285-.14356.62158-.21582a1.6491,1.6491,0,0,1,.56739-.1084,4.76187,4.76187,0,0,1,.51318.02734,4.51312,4.51312,0,0,0,.51367.02734,1.65968,1.65968,0,0,0,.40527.05372h.40528a12.24781,12.24781,0,0,1,2.86377.54,2.91826,2.91826,0,0,1,1.8916,1.89161.43079.43079,0,0,0,.189.05371h.13526a.80452.80452,0,0,0,.40527-.10743c.12549-.07226.24317-.14355.35108-.21679.07177-.03516.15283-.08106.24316-.13477q.13476-.08056.24316-.13476a2.94887,2.94887,0,0,1,1.8916.81445,10.03537,10.03537,0,0,1,1.24268,1.51953c.03565.03711.0625.06445.08106.082a.11225.11225,0,0,1,.02734.08106q.48633.65185.99951,1.25a2.56665,2.56665,0,0,0,1.32373.81347,2.84781,2.84781,0,0,0,.40527.81543q.29664.43361.62159.86817.37793.54345.70263,1.11426a2.333,2.333,0,0,1,.32422,1.167,1.68918,1.68918,0,0,1-.13525.65136,1.81443,1.81443,0,0,1-.51319.65235v.2168q0,.37938.21631.48925a1.91,1.91,0,0,0,.48633.16211h.05371c.1084.03711.22461.082.35156.13672a.59689.59689,0,0,1,.29688.29785,4.26969,4.26969,0,0,1,.35156,1.24317,10.49729,10.49729,0,0,1,.08106,1.29687,9.20783,9.20783,0,0,1-.32422,2.43164,17.75718,17.75718,0,0,1-.75684,2.21582.26728.26728,0,0,0-.13476.05371.33391.33391,0,0,1-.18946.05371,2.706,2.706,0,0,0-.40527.37891,1.0256,1.0256,0,0,0-.24316.48633.86067.86067,0,0,0,.02734.21582.9783.9783,0,0,0,.08105.21582,1.18843,1.18843,0,0,1,.29688.46,1.60606,1.60606,0,0,1,.08105.5127,1.52461,1.52461,0,0,1-.24316.78418q-.24316.40429-.51318.7832c-.03614.03613-.07276.07226-.10791.1084l-.1084.10742q-.271.3252-.51319.67578a2.691,2.691,0,0,0-.35156.67578,4.98656,4.98656,0,0,1-1.40478.919,11.47648,11.47648,0,0,1-1.56739.54c-.10791.03613-.19824.06347-.27.08105a1.12211,1.12211,0,0,0-.2163.08106c-.21582.07226-.42383.14453-.6211.21582-.19873.07324-.40527.14453-.62158.21679a.24527.24527,0,0,0-.13525.13477.58345.58345,0,0,0-.02686.18945v.16211a.42362.42362,0,0,0,.02686.13477.12218.12218,0,0,1-.02686.13476,1.72269,1.72269,0,0,0,.9458.8916,7.90466,7.90466,0,0,0,1.21582.29785,6.965,6.965,0,0,1,1.05371.18848,1.66714,1.66714,0,0,1,.8916.62207,3.77742,3.77742,0,0,1,2.81006-1.24316c.17969,0,.36914.00976.56739.02734a2.06208,2.06208,0,0,1,.56738.13477,1.63045,1.63045,0,0,1,.35107.75683,4.95926,4.95926,0,0,1,.08106.918v.32422a1.03981,1.03981,0,0,1-.05371.32422,3.97143,3.97143,0,0,1-.0542.64844c-.03614.21679-.07276.43261-.10791.64941a1.141,1.141,0,0,0-.29737.48633,1.8693,1.8693,0,0,0-.08105.54,2.65671,2.65671,0,0,0,.08105.64844c.0542.21582.1167.43261.189.64843q.10767.32373.18945.67578a3.01987,3.01987,0,0,1,.08106.67481,1.95515,1.95515,0,0,1-.48633,1.29687.3479.3479,0,0,1-.16211.16211,1.86707,1.86707,0,0,1-.27051.1084,2.02616,2.02616,0,0,0-.35107.21582.46223.46223,0,0,0-.13526.37891v.10742a.405.405,0,0,0,.0542.16211,2.34924,2.34924,0,0,1,.86475.91894,2.51333,2.51333,0,0,1,.27,1.13477,2.93028,2.93028,0,0,1-.02686.40527,1.34921,1.34921,0,0,1-.13525.40528,2.91065,2.91065,0,0,1-1.40479.83789,6.56024,6.56024,0,0,1-1.78369.24316h-.43213a1.76371,1.76371,0,0,1-.43213-.05371,14.26356,14.26356,0,0,1-1.51318-.18945q-.75732-.13477-1.35107-.29688a1.45947,1.45947,0,0,0-.48633-.32422,1.44454,1.44454,0,0,0-.54053-.10839,1.2206,1.2206,0,0,0-.37793.05371.68532.68532,0,0,0-.27051.16211,3.88252,3.88252,0,0,1-.8374.35156,2.38847,2.38847,0,0,1-.9458.081,3.15439,3.15439,0,0,1-.56738-.05371q-.29736-.05419-.56739-.1084a10.28918,10.28918,0,0,1-1.189-.40527q-.59545-.24316-1.189-.51367a2.4,2.4,0,0,0-.459-.26953c-.16211-.07227-.31592-.14356-.45947-.2168a2.57455,2.57455,0,0,1-.21631-.24316c-.07227-.08887-.144-.18848-.21582-.29688a10.59359,10.59359,0,0,0-1.10791-1.05371,2.84729,2.84729,0,0,0-1.48633-.62207q-.21606-.21532-.40527-.43164-.18971-.21534-.40528-.43262c-.03613,0-.05371-.00879-.05371-.02734,0-.01758-.01855-.02637-.0542-.02637a16.1228,16.1228,0,0,0-1.37793-1.32422,5.17364,5.17364,0,0,0-1.64843-.94531,1.224,1.224,0,0,0-.6211.72949,5.58535,5.58535,0,0,0-.18945.8916c-.03613.21582-.07275.41407-.10791.59375a1.68809,1.68809,0,0,1-.21631.541,2.73085,2.73085,0,0,1,.40527.86426,3.83219,3.83219,0,0,1,.13526,1.02734v.24317a.54266.54266,0,0,1-.0542.24316,1.55237,1.55237,0,0,1-.02686.29687,1.00889,1.00889,0,0,1-.08105.24317,1.24653,1.24653,0,0,1-.45947.64844,4.76741,4.76741,0,0,1-.7837.48632.42615.42615,0,0,0-.1621.05371.47939.47939,0,0,1-.21582.05469h-.43262a8.384,8.384,0,0,1-1.54-.13574,2.366,2.366,0,0,1-1.32373-.7832,6.86214,6.86214,0,0,1-1.29688.43261,6.51232,6.51232,0,0,1-1.45947.16211,5.344,5.344,0,0,1-1.40478-.18945,3.91353,3.91353,0,0,1-1.29688-.62109.15421.15421,0,0,1-.10791-.05469h-.16211a.72145.72145,0,0,0-.43262.16211,1.90563,1.90563,0,0,0-.37841.3789,2.39192,2.39192,0,0,1-.35108.37793.68111.68111,0,0,1-.45947.16211h-1.35059a7.65022,7.65022,0,0,1-2.05371-.37793,2.26415,2.26415,0,0,1-1.40478-1.40527,7.2316,7.2316,0,0,1-.16211-.83789,5.82139,5.82139,0,0,1-.0542-.7832,8.12707,8.12707,0,0,1,.13525-1.48633q.134-.72949.29688-1.43164.1626-.81153.29736-1.56738a8.64652,8.64652,0,0,0,.13525-1.5127c0-.2168-.00927-.44141-.02734-.67578a2.8457,2.8457,0,0,0-.13476-.67578,3.5757,3.5757,0,0,0-.18946-.67578,3.49619,3.49619,0,0,0-.35107-.67481c-.03614-.14355-.06348-.27051-.08106-.3789a1.90364,1.90364,0,0,1-.02685-.32422,2.03783,2.03783,0,0,1,.16211-.81153,7.51013,7.51013,0,0,1,.37793-.75879,1.95694,1.95694,0,0,1,.16211-.35156c.07177-.126.14355-.26172.2163-.40527a2.68234,2.68234,0,0,0,.08106-.29883,1.54091,1.54091,0,0,0,.02685-.29785.91314.91314,0,0,0-.02685-.21582.86706.86706,0,0,1-.02686-.2168,2.92546,2.92546,0,0,0-.2705-.43262,2.49356,2.49356,0,0,0-.43213-.43457q0-.48632-.02686-.94726c-.01855-.30567-.02734-.60449-.02734-.89258,0-.32422-.00928-.64062-.02686-.94727-.01855-.30664-.02685-.60546-.02685-.89355a15.66522,15.66522,0,0,1,.21582-2.626,6.67224,6.67224,0,0,1,.91894-2.41015.83383.83383,0,0,0,0-.59473,1.7277,1.7277,0,0,0-.32422-.43359c-.03662-.03516-.06347-.0625-.08105-.08106a.11438.11438,0,0,0-.08106-.02734,2.11353,2.11353,0,0,0-.24316-.29785.73027.73027,0,0,1-.18945-.35157,1.21058,1.21058,0,0,1,.02734-.24316,1.57352,1.57352,0,0,0,.02686-.29883v-1.001a1.91538,1.91538,0,0,0-.0542-.46v-.4873c0-.25293-.00928-.50488-.02686-.75879-.01855-.252-.02685-.4873-.02685-.7041a6.725,6.725,0,0,1,.21582-1.73242,2.32521,2.32521,0,0,1,.86474-1.29981V9.4509a1.0131,1.0131,0,0,0-.21631-.64941,2.392,2.392,0,0,0-.54-.48828.70114.70114,0,0,1-.18946-.13477.72853.72853,0,0,0-.189-.13476,3.58852,3.58852,0,0,0-.02686-.4336,3.398,3.398,0,0,1-.02734-.43262q-.0542-.43359-.08106-.86621c-.01855-.28906-.02685-.57812-.02685-.86718a4.52507,4.52507,0,0,1,.02685-.51368c.01807-.1621.04493-.335.08106-.51562a1.72909,1.72909,0,0,1,.08105-.48633,2.99945,2.99945,0,0,1,.18946-.4873c.03515-.03614.0625-.0625.08105-.08106a.11257.11257,0,0,0,.02686-.081,8.21527,8.21527,0,0,1,.9458-.81055,1.83056,1.83056,0,0,1,1.10742-.37891,1.28745,1.28745,0,0,1,.35156.05469,2.397,2.397,0,0,1,.40527.16211.71609.71609,0,0,0,.32422.26953,1.01772,1.01772,0,0,0,.32422.05469.946.946,0,0,0,.45947-.13574,1.77631,1.77631,0,0,0,.40528-.29688.43946.43946,0,0,1,.10791-.08105.41847.41847,0,0,0,.10791-.08106c.1084-.07226.207-.13476.29736-.18945a.48349.48349,0,0,1,.24317-.08105q.75585-.05274,1.48632-.08106.72949-.02637,1.48584-.02637a13.183,13.183,0,0,1,2.40479.21582,5.23539,5.23539,0,0,1,2.08057.86426,2.64179,2.64179,0,0,1,.97265-.7832,7.68409,7.68409,0,0,1,1.13477-.40527,1.01576,1.01576,0,0,1,.24316-.08106,2.45054,2.45054,0,0,0,.29736-.08105A.37146.37146,0,0,1,517.74267,1.54954Zm5.72852,11.32128a.10712.10712,0,0,1-.02735-.081.42317.42317,0,0,1-.08105-.1084.08786.08786,0,0,1,.02734-.1084q-.32447-.05273-.64844-.081c-.2163-.01758-.45117-.02637-.70263-.02637h-.48633a5.93985,5.93985,0,0,0-1.189.35059,2.95953,2.95953,0,0,0-1.08056.78418.52139.52139,0,0,0-.32422.21582.57853.57853,0,0,0-.1084.32422.56622.56622,0,0,0,.02734.18945,1.37746,1.37746,0,0,0,.08106.18945.3286.3286,0,0,0,.05371.18848.27015.27015,0,0,1,.0542.13574c.03516.07227.07178.14356.10791.21582.03564.07227.07178.14453.1084.21582v1.94531q0,.86572-.08106,1.7295a3.979,3.979,0,0,1-.51367,1.62109c.03565.1084.08106.22559.13526.35156.05419.127.09863.24317.13525.35156q.26954.70167.51318,1.48536a4.17075,4.17075,0,0,1,.189,1.54v.29785a.97209.97209,0,0,1-.05371.29687,1.49822,1.49822,0,0,1-.02735.29688,2.66974,2.66974,0,0,1-.08105.29785.18254.18254,0,0,0-.05371.13476v.18946a.82546.82546,0,0,0,.37793.70215,5.88761,5.88761,0,0,0,.81054.48632.25071.25071,0,0,1,.1084.02735.22868.22868,0,0,0,.10791.02636,2.86238,2.86238,0,0,1,.51319.27051c.16211.1084.31494.21582.45947.32422a3.803,3.803,0,0,1,.35156-.40527q.18823-.189.40527-.40528a1.8745,1.8745,0,0,0,.29688-.24316l.24316-.24316a12.67894,12.67894,0,0,0,1.189-1.24317,2.36685,2.36685,0,0,0,.54053-1.5664v-.16211a.15419.15419,0,0,1-.0542-.1084v-.1084a3.46479,3.46479,0,0,0,.29736-.81055c.05371-.251.09863-.5039.13477-.75586v-.05468a6.6839,6.6839,0,0,1,.16211-.78321,4.408,4.408,0,0,1,.3247-.83789,4.87891,4.87891,0,0,1-.37842-1.32422c-.07275-.48632-.12695-.98047-.16211-1.48535a15.83069,15.83069,0,0,0-.37841-2.29687,2.97374,2.97374,0,0,0-1.35108-1.81055C523.47949,12.9343,523.48876,12.88938,523.47119,12.87082Z"/><path class="cls-1" d="M567.26953,1.65793a6.5511,6.5511,0,0,1,1.459-.2705h.64844a4.21839,4.21839,0,0,1,1.67529.32421,1.98634,1.98634,0,0,1,1.08057,1.08106c-.03614.18066-.07276.36035-.10791.54a2.70878,2.70878,0,0,0-.0542.54,5.92857,5.92857,0,0,0,.10791,1.11133,10.83609,10.83609,0,0,0,.27051,1.11035q.10766.59619.21582,1.165a5.98,5.98,0,0,1,.10839,1.11132,3.5186,3.5186,0,0,1-.05419.623,2.9757,2.9757,0,0,1-.16211.56934,1.64949,1.64949,0,0,0,.02685.27148,1.96319,1.96319,0,0,1,.02735.32422,1.05522,1.05522,0,0,1,.05371.3252V10.864a1.0416,1.0416,0,0,1,.0542.32519v.32422a2.96487,2.96487,0,0,1-.10791.81348,1.21211,1.21211,0,0,1-.48633.65039,19.66187,19.66187,0,0,1-1.97266.2168q-.94629.05419-1.86426.05371h-1.62109a1.01652,1.01652,0,0,1-.32422-.05371h-2.59375a3.96866,3.96866,0,0,0-1.10791.83984,6.208,6.208,0,0,0-.78369,1.165v.27148a1.30976,1.30976,0,0,0,.64844,1.29981,7.61083,7.61083,0,0,0,1.459.543H564a.18755.18755,0,0,1,.13526.05371,7.0926,7.0926,0,0,1,.70215.13574,2.15816,2.15816,0,0,1,.59472.24316,4.74741,4.74741,0,0,1,1.59424-.541,11.61681,11.61681,0,0,1,1.97217-.16309q.70166,0,1.37793.05371.6753.05566,1.27.16309a1.74221,1.74221,0,0,1,.51318.67773,2.1784,2.1784,0,0,1,.13526.78516,3.06532,3.06532,0,0,1-.10791.78613c-.07276.27051-.16211.55078-.27051.83985a5.1976,5.1976,0,0,0,.08105.89453c.0542.30664.1167.60547.18946.89355.07177.28907.13476.5791.189.86719a4.70354,4.70354,0,0,1,.08106.86719,3.04671,3.04671,0,0,1-.10791.78515,3.148,3.148,0,0,1-.37842.84082,1.56431,1.56431,0,0,1-.56738.29786,2.366,2.366,0,0,1-.62159.08105,3.1553,3.1553,0,0,1-.56738-.05371,2.92184,2.92184,0,0,1-.56738-.16309q-.32447-.05419-.62158-.10839a3.2551,3.2551,0,0,0-.56739-.05372,1.94988,1.94988,0,0,0-1.29687.48731,2.1721,2.1721,0,0,0-.32422-.08106,2.20112,2.20112,0,0,1-.32422-.081,1.47814,1.47814,0,0,1-.29736-.02734,2.3753,2.3753,0,0,1-.29688-.08106q-.32447-.05419-.64844-.082c-.2163-.01758-.43261-.02734-.64843-.02734a3.495,3.495,0,0,0-1.05371.16308,2.31589,2.31589,0,0,0-.9458.59668,2.01772,2.01772,0,0,0-.08106.32422,2.28532,2.28532,0,0,0-.02734.37988.24661.24661,0,0,1-.02686.1084.23694.23694,0,0,0-.02685.1084,1.89914,1.89914,0,0,1-.13526.67676,1.51625,1.51625,0,0,1-.45947.623v.37989a4.12608,4.12608,0,0,0,.51367,1.76172,2.24359,2.24359,0,0,0,1.43213,1.11035,3.81033,3.81033,0,0,0,.40527.08105,2.77853,2.77853,0,0,0,.40528.02735h.75634q.6482,0,1.29688-.05469a12.36891,12.36891,0,0,0,1.24316-.16211q.64819-.05419,1.26953-.1084.6211-.05274,1.21631-.05371.3772,0,.75635.02637.3772.02782.75635.08105.37793.10986.75683.21778a6.56653,6.56653,0,0,1,.75635.2705,1.41614,1.41614,0,0,1,.54053.67774,2.68464,2.68464,0,0,1,.10791.78515,2.83264,2.83264,0,0,1-.05371.542,2.48562,2.48562,0,0,0-.0542.4873c-.03613.18066-.07275.35352-.10791.51563a2.33936,2.33936,0,0,0-.0542.51464,2.08949,2.08949,0,0,0,.0542.46094,1.19056,1.19056,0,0,0,.21582.46094,4.59525,4.59525,0,0,1,.16211.623,3.2261,3.2261,0,0,1,.0542.56836,4.285,4.285,0,0,1-.08106.84082q-.0813.40575-.189.78515-.05493.1626-.1084.29883a.65872.65872,0,0,0-.05371.24316q-.05493.271-.1084.542a2.75677,2.75677,0,0,0-.05371.542,2.67277,2.67277,0,0,0,.08105.65039,3.14614,3.14614,0,0,0,.24317.65039v.10742a2.14087,2.14087,0,0,1-.35156,1.18945,3.07062,3.07062,0,0,1-.9458.918q-3.29664.1626-6.40332.16211h-6.45752q-1.18945-.05419-2.37793-.05371h-2.37793q-1.83765,0-3.72852.02735-1.89185.02636-3.78271.13476a6.02664,6.02664,0,0,1-1.16163-1.65234,4.4751,4.4751,0,0,1-.45947-1.97754,3.906,3.906,0,0,1,.0542-.65039,4.1659,4.1659,0,0,1,.16211-.65039c.07178-.14356.13477-.27051.189-.37891a.71825.71825,0,0,0,.08105-.32519,1.04132,1.04132,0,0,0-.0542-.3252c-.03613-.10742-.07226-.2168-.10791-.32422a.426.426,0,0,0-.0542-.16308,2.845,2.845,0,0,1-.16211-.56836,3.18053,3.18053,0,0,1-.05371-.56934v-.2168a8.08922,8.08922,0,0,0,.24317-1.05566q.08056-.51415.13476-1.05664c.03565-.3252.0625-.66016.08106-1.00293q.02709-.51416.02734-1.05566,0-.75879-.0542-1.54493c-.03613-.52343-.07275-1.03711-.10791-1.54394q-.05493-.97559-.1084-1.9502-.05419-.97412-.05371-1.95019,0-.75879.05371-1.49024.05348-.73095.16211-1.48925-.10839-.75879-.16211-1.626-.05419-.86573-.10791-1.7334v-.70508q0-1.13671.10791-2.24707a12.19059,12.19059,0,0,1,.37842-2.08691,4.52179,4.52179,0,0,1-.56738-1.38086,6.98878,6.98878,0,0,1-.189-1.65235v-.48828a6.55448,6.55448,0,0,1,.24317-1.35449q.18822-.64893.40527-1.19141a11.85761,11.85761,0,0,1-.67578-1.95019,8.21139,8.21139,0,0,1-.189-2.92578,4.66784,4.66784,0,0,1,.21631-.97559,1.80608,1.80608,0,0,1,.91846-.64844,3.94516,3.94516,0,0,1,1.13476-.1621h.35108a1.67284,1.67284,0,0,1,.40527.05468,2.94868,2.94868,0,0,1,.40528.02637,2.14644,2.14644,0,0,1,.35156.081,2.78894,2.78894,0,0,0,.56738.16211,3.1587,3.1587,0,0,0,.56738.05469,4.72007,4.72007,0,0,0,.86475-.081c.2876-.05469.57568-.11719.86426-.18946.28808-.03515.57617-.08105.86474-.13476a4.92812,4.92812,0,0,1,.91895-.08106,3.26461,3.26461,0,0,1,.56738.05371,4.53941,4.53941,0,0,1,.6211.16211c.10839.03614.207.07227.29736.1084a1.68683,1.68683,0,0,1,.29736.16211c.2876-.1084.56739-.19824.8374-.27051.27051-.07226.54883-.14355.8379-.21582.25146-.03613.52148-.0625.81054-.081q.4314-.02784.81055-.02734.86352,0,1.729.08105.86426.08056,1.7295.24316h.1621q.81079.10841,1.648.21582a12.65772,12.65772,0,0,0,1.64844.1084A4.53536,4.53536,0,0,1,567.26953,1.65793Z"/><path class="cls-1" d="M606.28515,2.08957a1.40774,1.40774,0,0,1,.32422.70313,4.57454,4.57454,0,0,0,.35107,1.06055q.24317.51563.45948,1.05957.32373.706.62109,1.41308a4.03415,4.03415,0,0,1,.29736,1.5752v.32715a2.7676,2.7676,0,0,1,.7295,1.25,5.65683,5.65683,0,0,1,.18945,1.46679v.43555a.90539.90539,0,0,1-.02734.21777.87267.87267,0,0,0-.02686.2168,4.17368,4.17368,0,0,1-1.13477.56934,3.18942,3.18942,0,0,1-1.24316.13476,5.25042,5.25042,0,0,1-.54-.02734,3.19122,3.19122,0,0,1-.48633-.08106,6.83337,6.83337,0,0,1-1.0542-.29687c-.34277-.12695-.67529-.26172-.99951-.40723a3.92412,3.92412,0,0,1-1.32373.43457,10.48642,10.48642,0,0,1-1.54053.10742h-.56738a2.87921,2.87921,0,0,1-.56738-.05371,4.03959,4.03959,0,0,1-.459-.02734,4.28076,4.28076,0,0,0-.45947-.02637c-.25244-.03613-.48633-.0625-.70264-.081-.2163-.01758-.43212-.02735-.64843-.02735a.87646.87646,0,0,0-.29737-.13476,1.29413,1.29413,0,0,0-.24316-.02735.78613.78613,0,0,0-.48633.16211,4.10438,4.10438,0,0,0-.43213.37793.04826.04826,0,0,0-.0542.05469q-.21606.16113-.40527.32422a.98986.98986,0,0,1-.459.21582,1.96,1.96,0,0,0-.1084.27051,2.23115,2.23115,0,0,1-.10791.26953c-.07276.14453-.13526.27051-.189.37891a.83462.83462,0,0,0-.08105.37792v.13575a.181.181,0,0,0,.05371.13476.97114.97114,0,0,1,.1084.13477.81265.81265,0,0,0,.10791.13574,2.60023,2.60023,0,0,0,1.43213,1.21582q.89135.29736,1.81005.5127a8.77122,8.77122,0,0,1,1.99952.56738,2.74121,2.74121,0,0,1,1.459,1.64844h.1084a.41873.41873,0,0,0,.16211-.05371h.21582a4.46345,4.46345,0,0,1,2.8374,1.16113,15.74467,15.74467,0,0,1,2.24219,2.40527,2.75316,2.75316,0,0,0,.27051.43262,2.90254,2.90254,0,0,1,.27.43164,2.83358,2.83358,0,0,0-.32422.48633.95411.95411,0,0,0-.10791.43261.732.732,0,0,0,.21582.54,3.45146,3.45146,0,0,0,.54053.43262c.03564.03613.0625.06348.08105.08106.01758.01855.04492.04589.08105.08105q.32447.271.62159.54a.909.909,0,0,1,.29736.70312v.05372q.05274.271.08105.56738.02637.29736.02686.56738.10767.64893.16211,1.29688.05346.64891.0542,1.35156a7.99414,7.99414,0,0,1-.35156,2.377,3.57071,3.57071,0,0,1-1.43213,1.8916v.32422a4.17723,4.17723,0,0,1-1.29688,3.24219,20.56466,20.56466,0,0,1-2.918,2.21582,1.40408,1.40408,0,0,0-.21631.13477,1.40512,1.40512,0,0,1-.21582.13574q-.59546.37793-1.189.7832-.59546.40577-1.13477.83789-.16258.05419-.32421.1084a1.01874,1.01874,0,0,1-.32422.05371,1.58539,1.58539,0,0,1-.37842.05371h-.67529a1.101,1.101,0,0,1-.35157-.05371H597.855a3.25431,3.25431,0,0,0-1.08106.18945,1.94388,1.94388,0,0,0-.97266.94532,13.146,13.146,0,0,0-1.89111.13476q-.91992.13623-1.8374.29785-.97266.16114-1.8916.29688a13.01845,13.01845,0,0,1-1.89112.13476.62463.62463,0,0,0-.13525-.24316c-.05371-.05371-.09961-.09863-.13477-.13477a.36007.36007,0,0,0-.13525-.08105.42174.42174,0,0,0-.43262.08105,1.37438,1.37438,0,0,1-.24316.16211l-.05371.05371a2.82952,2.82952,0,0,1-.32422.18946.72522.72522,0,0,1-.32422.081h-.0542a3.5529,3.5529,0,0,0-.43213.02735,3.8643,3.8643,0,0,1-.48633.02636c-.28906.03711-.59472.06348-.91894.08106q-.48633.02782-.97266.02734a7.14543,7.14543,0,0,1-1.29687-.1084,2.83086,2.83086,0,0,1-1.13477-.48632,6.618,6.618,0,0,0-.40527-.78321q-.24316-.40576-.51367-.7832-.43287-.70166-.83741-1.46a3.48759,3.48759,0,0,1-.40527-1.67481v-.2705a.42854.42854,0,0,1,.02686-.13477.44073.44073,0,0,0,.02734-.13477,2.26636,2.26636,0,0,1-1.40527-1.37793,6.04653,6.04653,0,0,1-.32422-1.97265v-.70215a1.75639,1.75639,0,0,1,.0542-.43262v-.86523a1.85413,1.85413,0,0,1,.97265-.72949,5.70407,5.70407,0,0,1,1.189-.24317.86192.86192,0,0,0,.21582-.02636.90546.90546,0,0,1,.21631-.02735,3.38492,3.38492,0,0,0,.43213-.02734,1.87778,1.87778,0,0,0,.37841-.08106,2.52544,2.52544,0,0,0,.24317.1084.65468.65468,0,0,0,.24316.05371q.32447.1626.64844.32422a1.40173,1.40173,0,0,1,.54053.48633,4.13906,4.13906,0,0,1,1.43213-.40527,15.56074,15.56074,0,0,1,1.59423-.08106c.2876,0,.56739.00977.83741.02734q.405.02784.78369.02735c.2876,0,.56738.00879.8374.02637.27051.01855.53125.02734.78369.02734h.21631a.47793.47793,0,0,0,.21582-.05371h.37842a.914.914,0,0,0,.97266.40527,5.25935,5.25935,0,0,0,1.08105-.40527.33911.33911,0,0,1,.13477-.08106.33328.33328,0,0,0,.13525-.081,2.26828,2.26828,0,0,1,.40527-.16309c.126-.03515.26075-.07226.40528-.1084a1.87956,1.87956,0,0,0,.40527-.43261,2.73618,2.73618,0,0,0,.29736-.542.865.865,0,0,1,.02686-.21582.91507.91507,0,0,0,.02685-.2168,1.05024,1.05024,0,0,0-.05371-.3252,1.42228,1.42228,0,0,0-.16211-.32519,5.62737,5.62737,0,0,0-.97265-.86524q-.54126-.37939-1.13477-.75879a1.57661,1.57661,0,0,1-.18945-.10742,1.8012,1.8012,0,0,0-.189-.10937,10.086,10.086,0,0,1-.9458-.59473,6.82379,6.82379,0,0,1-.8916-.75879h-.27a2.88029,2.88029,0,0,1-1.70263-.51367,13.82283,13.82283,0,0,1-1.43165-1.16406c0-.03516-.03662-.07129-.10839-.1084q-.64819-.59619-1.32373-1.13672a3.03564,3.03564,0,0,0-1.54-.65039,5.19744,5.19744,0,0,1-1.37793-1.51563,15.60174,15.60174,0,0,1-.89209-1.73242,2.23747,2.23747,0,0,0-.10791-.27051c-.03614-.07128-.07276-.14453-.10791-.21679q-.2168-.43359-.40528-.86621a8.85031,8.85031,0,0,0-.40527-.81153,1.51048,1.51048,0,0,0-.13525-.29785.56623.56623,0,0,1-.08106-.29785,2.38513,2.38513,0,0,1-.08105-.29785,1.48052,1.48052,0,0,1-.02686-.29785,2.70259,2.70259,0,0,1,.21582-1.05567c.14356-.34277.28809-.67578.43262-1.00195h.05371V14.9177c.14355-.32422.28809-.65918.43262-1.002a2.70783,2.70783,0,0,0,.21582-1.05567v-.3789a.60927.60927,0,0,0-.02686-.18848,1.60565,1.60565,0,0,0-.08105-.19043,9.87082,9.87082,0,0,1,2.89111-5.11621,12.60422,12.60422,0,0,1,5.05273-3.11328,2.32,2.32,0,0,0,.62159.21679,2.90047,2.90047,0,0,0,.51318.05372,3.50312,3.50312,0,0,0,.86475-.1084,7.99376,7.99376,0,0,0,.86425-.26953,2.19194,2.19194,0,0,1,.32471-.08106,2.08557,2.08557,0,0,0,.32422-.081,3.37955,3.37955,0,0,1,2.16113-1.21582,25.41987,25.41987,0,0,1,2.648-.24317,1.10094,1.10094,0,0,1,.35156-.05469h.35108a2.14821,2.14821,0,0,1,.86474.18946,4.56936,4.56936,0,0,1,.81055.459,3.39219,3.39219,0,0,1,1.648-1.08008,7.12321,7.12321,0,0,1,1.97266-.2705c.32422,0,.65674.00878.99951.02734.34228.01855.67578.04492,1,.081.21582.03614.43213.0625.64844.08106s.41357.02637.59423.02637A1.8777,1.8777,0,0,1,606.28515,2.08957Z"/><path class="cls-1" d="M641.51806,2.08957a1.40774,1.40774,0,0,1,.32422.70313,4.57454,4.57454,0,0,0,.35107,1.06055q.24316.51563.45948,1.05957.32373.706.62109,1.41308a4.03415,4.03415,0,0,1,.29736,1.5752v.32715a2.7676,2.7676,0,0,1,.7295,1.25,5.65683,5.65683,0,0,1,.18945,1.46679v.43555a.90539.90539,0,0,1-.02734.21777.87267.87267,0,0,0-.02686.2168,4.17368,4.17368,0,0,1-1.13477.56934,3.18942,3.18942,0,0,1-1.24316.13476,5.25042,5.25042,0,0,1-.54-.02734,3.19122,3.19122,0,0,1-.48633-.08106,6.83337,6.83337,0,0,1-1.0542-.29687c-.34277-.12695-.67529-.26172-.99951-.40723a3.92412,3.92412,0,0,1-1.32373.43457,10.48642,10.48642,0,0,1-1.54053.10742h-.56738a2.87921,2.87921,0,0,1-.56738-.05371,4.03959,4.03959,0,0,1-.459-.02734,4.28062,4.28062,0,0,0-.45947-.02637c-.25244-.03613-.48633-.0625-.70263-.081-.21631-.01758-.43213-.02735-.64844-.02735a.87646.87646,0,0,0-.29737-.13476,1.29413,1.29413,0,0,0-.24316-.02735.78613.78613,0,0,0-.48633.16211,4.10438,4.10438,0,0,0-.43213.37793.04826.04826,0,0,0-.0542.05469q-.21606.16113-.40527.32422a.98986.98986,0,0,1-.459.21582,1.96123,1.96123,0,0,0-.1084.27051,2.23115,2.23115,0,0,1-.10791.26953c-.07276.14453-.13526.27051-.189.37891a.83462.83462,0,0,0-.08105.37792v.13575a.181.181,0,0,0,.05371.13476.97114.97114,0,0,1,.1084.13477.81265.81265,0,0,0,.10791.13574,2.60023,2.60023,0,0,0,1.43213,1.21582q.89134.29736,1.81006.5127a8.77128,8.77128,0,0,1,1.99951.56738,2.74121,2.74121,0,0,1,1.459,1.64844h.1084a.41868.41868,0,0,0,.16211-.05371h.21582a4.46345,4.46345,0,0,1,2.8374,1.16113,15.74467,15.74467,0,0,1,2.24219,2.40527,2.75316,2.75316,0,0,0,.27051.43262,2.90254,2.90254,0,0,1,.27.43164,2.83417,2.83417,0,0,0-.32422.48633.95411.95411,0,0,0-.10791.43261.732.732,0,0,0,.21582.54,3.45146,3.45146,0,0,0,.54053.43262c.03564.03613.0625.06348.08105.08106.01758.01855.04492.04589.08105.08105q.32447.271.62159.54a.909.909,0,0,1,.29736.70312v.05372q.05274.271.08105.56738.02637.29736.02686.56738.10767.64893.16211,1.29688.05346.64891.0542,1.35156a7.99414,7.99414,0,0,1-.35156,2.377,3.57071,3.57071,0,0,1-1.43213,1.8916v.32422a4.17723,4.17723,0,0,1-1.29688,3.24219,20.56466,20.56466,0,0,1-2.918,2.21582,1.40408,1.40408,0,0,0-.21631.13477,1.40512,1.40512,0,0,1-.21582.13574q-.59546.37793-1.189.7832-.59545.40577-1.13477.83789-.16258.05419-.32421.1084a1.01874,1.01874,0,0,1-.32422.05371,1.58539,1.58539,0,0,1-.37842.05371h-.67529a1.101,1.101,0,0,1-.35157-.05371h-.75634a3.25431,3.25431,0,0,0-1.08106.18945,1.94388,1.94388,0,0,0-.97266.94532,13.146,13.146,0,0,0-1.89111.13476q-.91992.13623-1.8374.29785-.97266.16114-1.8916.29688a13.01845,13.01845,0,0,1-1.89112.13476.62463.62463,0,0,0-.13525-.24316c-.05371-.05371-.09961-.09863-.13477-.13477a.36007.36007,0,0,0-.13525-.08105.42174.42174,0,0,0-.43262.08105,1.37438,1.37438,0,0,1-.24316.16211l-.05371.05371a2.82952,2.82952,0,0,1-.32422.18946.72522.72522,0,0,1-.32422.081h-.0542a3.5529,3.5529,0,0,0-.43213.02735,3.8643,3.8643,0,0,1-.48633.02636c-.28906.03711-.59472.06348-.91894.08106q-.48633.02782-.97266.02734a7.14543,7.14543,0,0,1-1.29687-.1084,2.83086,2.83086,0,0,1-1.13477-.48632,6.618,6.618,0,0,0-.40527-.78321q-.24317-.40576-.51367-.7832-.43287-.70166-.83741-1.46a3.48759,3.48759,0,0,1-.40527-1.67481v-.2705a.42854.42854,0,0,1,.02686-.13477.44073.44073,0,0,0,.02734-.13477,2.26636,2.26636,0,0,1-1.40527-1.37793,6.04653,6.04653,0,0,1-.32422-1.97265v-.70215a1.75639,1.75639,0,0,1,.0542-.43262v-.86523a1.85413,1.85413,0,0,1,.97265-.72949,5.70407,5.70407,0,0,1,1.189-.24317.86192.86192,0,0,0,.21582-.02636.90546.90546,0,0,1,.21631-.02735,3.38492,3.38492,0,0,0,.43213-.02734,1.87778,1.87778,0,0,0,.37841-.08106,2.52544,2.52544,0,0,0,.24317.1084.65468.65468,0,0,0,.24316.05371q.32447.1626.64844.32422a1.40173,1.40173,0,0,1,.54053.48633,4.13906,4.13906,0,0,1,1.43213-.40527,15.56074,15.56074,0,0,1,1.59423-.08106c.2876,0,.56739.00977.83741.02734q.405.02784.78369.02735c.2876,0,.56738.00879.8374.02637.27051.01855.53125.02734.78369.02734h.21631a.47793.47793,0,0,0,.21582-.05371h.37842a.914.914,0,0,0,.97266.40527,5.25935,5.25935,0,0,0,1.08105-.40527.33911.33911,0,0,1,.13477-.08106.33328.33328,0,0,0,.13525-.081,2.26828,2.26828,0,0,1,.40527-.16309c.126-.03515.26075-.07226.40528-.1084a1.87935,1.87935,0,0,0,.40527-.43261,2.73618,2.73618,0,0,0,.29736-.542.865.865,0,0,1,.02686-.21582.91507.91507,0,0,0,.02685-.2168,1.05024,1.05024,0,0,0-.05371-.3252,1.42228,1.42228,0,0,0-.16211-.32519,5.62737,5.62737,0,0,0-.97265-.86524q-.54126-.37939-1.13477-.75879a1.57661,1.57661,0,0,1-.18945-.10742,1.8012,1.8012,0,0,0-.189-.10937,10.086,10.086,0,0,1-.9458-.59473,6.82379,6.82379,0,0,1-.8916-.75879h-.27a2.88029,2.88029,0,0,1-1.70263-.51367,13.82283,13.82283,0,0,1-1.43165-1.16406c0-.03516-.03662-.07129-.10839-.1084q-.64819-.59619-1.32373-1.13672a3.03564,3.03564,0,0,0-1.54-.65039,5.19744,5.19744,0,0,1-1.37793-1.51563,15.60174,15.60174,0,0,1-.89209-1.73242,2.23747,2.23747,0,0,0-.10791-.27051c-.03614-.07128-.07276-.14453-.10791-.21679q-.2168-.43359-.40528-.86621a8.85031,8.85031,0,0,0-.40527-.81153,1.51048,1.51048,0,0,0-.13525-.29785.56623.56623,0,0,1-.08106-.29785,2.38513,2.38513,0,0,1-.08105-.29785,1.48052,1.48052,0,0,1-.02686-.29785,2.70259,2.70259,0,0,1,.21582-1.05567c.14356-.34277.28809-.67578.43262-1.00195h.05371V14.9177c.14355-.32422.28809-.65918.43262-1.002a2.70783,2.70783,0,0,0,.21582-1.05567v-.3789a.60927.60927,0,0,0-.02686-.18848,1.60565,1.60565,0,0,0-.081-.19043,9.87082,9.87082,0,0,1,2.89111-5.11621,12.60422,12.60422,0,0,1,5.05273-3.11328,2.32,2.32,0,0,0,.62159.21679,2.90047,2.90047,0,0,0,.51318.05372,3.50312,3.50312,0,0,0,.86475-.1084,7.99376,7.99376,0,0,0,.86425-.26953,2.19194,2.19194,0,0,1,.32471-.08106,2.08557,2.08557,0,0,0,.32422-.081,3.37957,3.37957,0,0,1,2.16113-1.21582,25.41987,25.41987,0,0,1,2.64795-.24317,1.10094,1.10094,0,0,1,.35156-.05469h.35108A2.14821,2.14821,0,0,1,633.25,2.279a4.56936,4.56936,0,0,1,.81055.459,3.39219,3.39219,0,0,1,1.648-1.08008,7.12321,7.12321,0,0,1,1.97266-.2705c.32422,0,.65674.00878.99951.02734.34228.01855.67578.04492,1,.081.21582.03614.43213.0625.64844.08106s.41357.02637.59423.02637A1.8777,1.8777,0,0,1,641.51806,2.08957Z"/><path class="cls-1" d="M657.10791,26.83957a1.12969,1.12969,0,0,0,.45947.1084.582.582,0,0,0,.189-.02734,1.44033,1.44033,0,0,0,.18946-.08106.47787.47787,0,0,0,.21582-.05371c.07177-.03613.14355-.07226.2163-.1084a3.13939,3.13939,0,0,1,.48633-.18945,2.07537,2.07537,0,0,1,.59473-.081h.05371a.54589.54589,0,0,1,.24316-.05371h.24317a2.67776,2.67776,0,0,1,.64844.08105q.32445.08057.64843.18945a1.65163,1.65163,0,0,0,.29737.16211.78977.78977,0,0,0,.29736.05371,2.37961,2.37961,0,0,0,.29736.08106,1.4699,1.4699,0,0,0,.29688.02734c.14355-.03613.29736-.07226.45947-.1084a1.19146,1.19146,0,0,0,.45947-.21582,3.22537,3.22537,0,0,1,.7295,1.67481q.134.97266.189,2v1.13476c0,.252.0083.49512.02686.7295q.02709.35155.08105.6748a1.73206,1.73206,0,0,0-.51318.67578,2.01122,2.01122,0,0,0-.13526.72949,5.10316,5.10316,0,0,0,.18946.81055c.08935.28906.189.57715.29687.86524a2.806,2.806,0,0,1,.13526.64843q.02635.32373.02685.59375a5.51439,5.51439,0,0,1-.10791,1.08106q-.10913.54052-.21631,1.081a.76526.76526,0,0,1-.02685.16211.35058.35058,0,0,1-.08106.16211q-.10912.59474-.24316,1.16113a5.23451,5.23451,0,0,0-.13526,1.2168,1.29276,1.29276,0,0,1-.32421.24317.689.689,0,0,1-.64844,0,3.14978,3.14978,0,0,1-.32422-.18946,3.36052,3.36052,0,0,0-.62109-.24316q-.29811-.08056-.67579.35156a1.17015,1.17015,0,0,0-.97265-.48633,1.45873,1.45873,0,0,0-.54053.10742,3.82132,3.82132,0,0,0-.54.27051,3.82483,3.82483,0,0,1-.54053.27051,1.44469,1.44469,0,0,1-.54052.10742,1.19615,1.19615,0,0,1-.24317-.02637.46546.46546,0,0,1-.24316-.13574.74935.74935,0,0,1-.29736-.18847,1.31757,1.31757,0,0,1-.24317-.35157,5.05585,5.05585,0,0,1-1.18848.51368,6.654,6.654,0,0,1-1.35107.24316h-.54053a5.24957,5.24957,0,0,1-1.32373-.16211,5.91941,5.91941,0,0,1-1.16211-.43262h-.0542a1.22818,1.22818,0,0,0-.43213.08106c-.14453.05371-.27.09961-.37841.13476-.07227.03614-.15332.07325-.24317.1084q-.13549.05419-.24316.1084h-.27a.65745.65745,0,0,1-.24316-.05469c-.09034-.03515-.189-.07129-.29737-.10742a6.40873,6.40873,0,0,1-.51318-1.541,7.82347,7.82347,0,0,1-.13526-1.43164,1.91142,1.91142,0,0,1,.02735-.32421,2.37359,2.37359,0,0,0,.02685-.37793,1.90255,1.90255,0,0,1,.02686-.32422,1.97212,1.97212,0,0,0,.02734-.32422q.05274-.48633.08106-1.02735.02637-.53906.02685-1.13476,0-.43214-.02685-.83692c-.01856-.2705-.02735-.54882-.02735-.83789q-.0542-.37792-.08105-.81054c-.01856-.28809-.02686-.5586-.02686-.81055a7.28827,7.28827,0,0,1,.13526-1.43262,4.25694,4.25694,0,0,1,.51318-1.32324,1.48578,1.48578,0,0,0-.0542-.40527,1.27855,1.27855,0,0,1-.05371-.35156q-.05493-.26954-.1084-.54a2.74723,2.74723,0,0,1-.05371-.541,1.28936,1.28936,0,0,1,.05371-.35156c.03565-.125.07178-.26074.1084-.40528A8.78848,8.78848,0,0,1,651.272,26.488a19.20087,19.20087,0,0,1,2.29638-.13476q.7566,0,1.51319.02734.75658.02782,1.51318.081A1.74327,1.74327,0,0,0,657.10791,26.83957Z"/></svg>