<?xml version="1.0" encoding="utf-8"?>
<!-- Generator: Adobe Illustrator 16.0.0, SVG Export Plug-In . SVG Version: 6.00 Build 0)  -->
<!DOCTYPE svg PUBLIC "-//W3C//DTD SVG 1.0//EN" "http://www.w3.org/TR/2001/REC-SVG-20010904/DTD/svg10.dtd">
<svg version="1.0" id="Layer_1" xmlns="http://www.w3.org/2000/svg" xmlns:xlink="http://www.w3.org/1999/xlink" x="0px" y="0px"
	 width="251.566px" height="30.05px" viewBox="0 0 251.566 30.05" enable-background="new 0 0 251.566 30.05" xml:space="preserve">
<g>
	<path d="M25.506,6.68l-5.499,17.375h-4.903l-2.274-9.414l-2.375,9.414H5.603L0,6.68h6.696l2.293,8.507l2.185-8.507h5.042l2.154,8.5
		l2.405-8.5H25.506z"/>
	<path d="M34.659,24.413c-2.881,0-5.17-0.897-6.868-2.69c-1.697-1.794-2.545-3.898-2.545-6.313c0-2.597,0.886-4.761,2.657-6.492
		c1.771-1.731,4.074-2.597,6.91-2.597c2.858,0,5.156,0.854,6.893,2.563c1.737,1.708,2.605,3.85,2.605,6.424
		c0,2.597-0.88,4.764-2.64,6.5C39.912,23.544,37.574,24.413,34.659,24.413z M34.761,20.279c1.059,0,1.706-0.55,1.939-1.648
		c0.233-1.1,0.35-2.247,0.35-3.443c0-1.628-0.165-2.801-0.495-3.519c-0.331-0.717-0.923-1.076-1.777-1.076
		c-0.786,0-1.361,0.37-1.726,1.11c-0.364,0.741-0.546,1.959-0.546,3.657c0,1.992,0.188,3.311,0.563,3.954
		C33.446,19.957,34.01,20.279,34.761,20.279z"/>
	<path d="M52.61,24.054h-6.526V6.68h5.671v3.587c0.649-2.608,2.158-3.912,4.527-3.912c0.239,0,0.569,0.023,0.991,0.068v6.065
		c-0.478-0.114-0.905-0.171-1.281-0.171c-2.255,0-3.382,1.258-3.382,3.776V24.054z"/>
	<path d="M77.506,6.68l-5.25,5.968l5.848,11.406h-7.046l-3.26-6.957l-1.858,2.174v4.783h-6.389V0.735h6.389v9.412
		c0,0.262-0.017,1.31-0.051,3.143c0.41-0.581,0.826-1.11,1.248-1.588l4.361-5.022H77.506z"/>
	<path d="M89.716,0v5.398H82.9V0H89.716z M89.716,6.68v17.375H82.9V6.68H89.716z"/>
	<path d="M109.394,24.054h-6.816V13.12c0-0.899-0.14-1.475-0.418-1.725c-0.279-0.25-0.629-0.376-1.051-0.376
		c-1.241,0-1.862,0.866-1.862,2.597v10.438H92.43V6.68h6.321v2.46c0.934-1.879,2.602-2.819,5.005-2.819
		c1.264,0,2.332,0.242,3.203,0.726c0.871,0.484,1.495,1.111,1.871,1.879c0.376,0.769,0.564,2.104,0.564,4.006V24.054z"/>
	<path d="M121.397,29.538h-6.816V6.68h6.27v2.46c0.877-1.879,2.511-2.819,4.903-2.819c2.072,0,3.695,0.806,4.869,2.417
		c1.173,1.612,1.76,3.807,1.76,6.585c0,2.779-0.602,4.988-1.803,6.629c-1.201,1.64-2.787,2.46-4.758,2.46
		c-1.936,0-3.411-0.74-4.425-2.222V29.538z M121.397,17.699c0,0.774,0.177,1.375,0.53,1.803c0.353,0.427,0.792,0.641,1.315,0.641
		c0.82,0,1.384-0.379,1.691-1.137s0.461-1.922,0.461-3.494c0-1.81-0.176-3.083-0.529-3.817c-0.353-0.735-0.883-1.102-1.589-1.102
		c-0.421,0-0.84,0.166-1.255,0.496c-0.416,0.331-0.624,0.871-0.624,1.623V17.699z"/>
	<path d="M140.75,24.054h-6.525V6.68h5.671v3.587c0.649-2.608,2.158-3.912,4.527-3.912c0.239,0,0.569,0.023,0.991,0.068v6.065
		c-0.479-0.114-0.906-0.171-1.281-0.171c-2.256,0-3.383,1.258-3.383,3.776V24.054z"/>
	<path d="M155.182,24.413c-2.881,0-5.17-0.897-6.867-2.69c-1.697-1.794-2.546-3.898-2.546-6.313c0-2.597,0.886-4.761,2.657-6.492
		c1.77-1.731,4.074-2.597,6.91-2.597c2.857,0,5.156,0.854,6.893,2.563c1.736,1.708,2.605,3.85,2.605,6.424
		c0,2.597-0.88,4.764-2.64,6.5C160.436,23.544,158.098,24.413,155.182,24.413z M155.284,20.279c1.06,0,1.706-0.55,1.938-1.648
		c0.234-1.1,0.351-2.247,0.351-3.443c0-1.628-0.165-2.801-0.495-3.519c-0.33-0.717-0.923-1.076-1.777-1.076
		c-0.785,0-1.36,0.37-1.725,1.11c-0.365,0.741-0.547,1.959-0.547,3.657c0,1.992,0.188,3.311,0.563,3.954
		S154.533,20.279,155.284,20.279z"/>
	<path d="M184.716,2.733l-0.171,4.664l-0.324-0.017c-0.615-0.034-1.054-0.051-1.316-0.051c-1.059,0-1.696,0.211-1.912,0.632
		c1.298,1.071,1.947,2.363,1.947,3.878c0,1.777-0.703,3.112-2.11,4.006c-1.407,0.895-3.317,1.341-5.731,1.341
		c-0.057,0-0.354-0.011-0.889-0.034c-0.501-0.022-0.763-0.034-0.785-0.034c-1.105,0-1.657,0.285-1.657,0.854
		c0,0.501,0.489,0.769,1.47,0.803l5.586,0.239c2.038,0.091,3.533,0.661,4.484,1.708c0.951,1.049,1.426,2.272,1.426,3.674
		c0,1.662-0.709,3.02-2.127,4.074c-1.418,1.053-4.176,1.58-8.276,1.58c-6.321,0-9.481-1.452-9.481-4.356
		c0-1.583,0.837-2.688,2.512-3.314c-1.082-0.763-1.623-1.668-1.623-2.716c0-1.709,1.109-2.996,3.331-3.861
		c-1.856-0.809-2.784-2.152-2.784-4.032c0-1.719,0.751-3.058,2.254-4.015c1.504-0.957,3.564-1.435,6.186-1.435
		c1.195,0,2.283,0.12,3.262,0.359c0.398-2.722,1.84-4.083,4.322-4.083C182.877,2.597,183.68,2.643,184.716,2.733z M172.996,23.828
		c-0.25-0.012-0.5-0.018-0.751-0.018c-1.173,0-1.76,0.365-1.76,1.096c0,0.673,0.446,1.105,1.341,1.301
		c0.895,0.193,2.087,0.29,3.579,0.29c1.412,0,2.32-0.12,2.725-0.358c0.404-0.239,0.606-0.569,0.606-0.99
		c0-0.296-0.091-0.543-0.273-0.742c-0.182-0.199-0.615-0.316-1.298-0.35L172.996,23.828z M174.738,13.958
		c1.322,0,1.982-0.701,1.982-2.102c0-1.435-0.678-2.152-2.033-2.152c-1.344,0-2.016,0.729-2.016,2.187
		C172.672,13.269,173.361,13.958,174.738,13.958z"/>
	<path d="M192.178,24.054h-6.525V6.68h5.672v3.587c0.648-2.608,2.158-3.912,4.527-3.912c0.238,0,0.568,0.023,0.99,0.068v6.065
		c-0.479-0.114-0.905-0.171-1.281-0.171c-2.255,0-3.383,1.258-3.383,3.776V24.054z"/>
	<path d="M209.6,17.818l6.355,0.428c-0.377,1.708-1.336,3.163-2.879,4.365c-1.543,1.201-3.631,1.802-6.262,1.802
		c-2.927,0-5.262-0.846-7.004-2.537s-2.613-3.79-2.613-6.296c0-2.596,0.859-4.788,2.579-6.577c1.72-1.788,4.015-2.682,6.885-2.682
		c2.778,0,5.025,0.843,6.739,2.529c1.715,1.686,2.571,3.98,2.571,6.884c0,0.239-0.006,0.57-0.017,0.991H204.32
		c0.023,1.093,0.217,1.905,0.582,2.435c0.363,0.529,1.059,0.794,2.084,0.794C208.467,19.954,209.338,19.242,209.6,17.818z
		 M209.139,13.308c-0.012-1.173-0.247-1.961-0.707-2.366c-0.459-0.404-1.029-0.606-1.711-0.606c-1.611,0-2.417,0.991-2.417,2.973
		H209.139z"/>
	<path d="M216.225,19.134l5.381-0.735c0.309,1.253,1.526,1.88,3.656,1.88c1.766,0,2.648-0.342,2.648-1.025
		c0-0.297-0.172-0.527-0.514-0.691c-0.341-0.166-1.15-0.334-2.426-0.505c-3.53-0.489-5.734-1.256-6.611-2.298
		s-1.314-2.201-1.314-3.477c0-1.776,0.74-3.214,2.221-4.313c1.48-1.099,3.422-1.649,5.825-1.649c4.214,0,6.901,1.521,8.063,4.562
		l-5.159,0.974c-0.479-1.025-1.486-1.538-3.024-1.538c-0.729,0-1.271,0.1-1.631,0.299s-0.538,0.396-0.538,0.589
		c0,0.569,0.546,0.916,1.64,1.04c2.848,0.315,4.779,0.638,5.793,0.968c1.013,0.331,1.878,0.935,2.596,1.813
		c0.717,0.877,1.076,1.937,1.076,3.179c0,1.903-0.795,3.414-2.383,4.531c-1.59,1.116-3.779,1.675-6.569,1.675
		C220.25,24.413,217.34,22.653,216.225,19.134z"/>
	<path d="M233.886,19.134l5.382-0.735c0.307,1.253,1.525,1.88,3.654,1.88c1.766,0,2.648-0.342,2.648-1.025
		c0-0.297-0.17-0.527-0.512-0.691c-0.342-0.166-1.15-0.334-2.426-0.505c-3.531-0.489-5.734-1.256-6.611-2.298
		s-1.316-2.201-1.316-3.477c0-1.776,0.74-3.214,2.222-4.313c1.479-1.099,3.422-1.649,5.825-1.649c4.213,0,6.902,1.521,8.064,4.562
		l-5.16,0.974c-0.479-1.025-1.486-1.538-3.023-1.538c-0.729,0-1.273,0.1-1.632,0.299s-0.538,0.396-0.538,0.589
		c0,0.569,0.547,0.916,1.641,1.04c2.848,0.315,4.777,0.638,5.791,0.968c1.014,0.331,1.879,0.935,2.596,1.813
		c0.719,0.877,1.076,1.937,1.076,3.179c0,1.903-0.793,3.414-2.383,4.531c-1.588,1.116-3.777,1.675-6.568,1.675
		C237.912,24.413,235.002,22.653,233.886,19.134z"/>
</g>
</svg>
