<?xml version="1.0" encoding="utf-8"?>
<!-- Generator: Adobe Illustrator 16.0.0, SVG Export Plug-In . SVG Version: 6.00 Build 0)  -->
<!DOCTYPE svg PUBLIC "-//W3C//DTD SVG 1.0//EN" "http://www.w3.org/TR/2001/REC-SVG-20010904/DTD/svg10.dtd">
<svg version="1.0" id="Layer_1" xmlns="http://www.w3.org/2000/svg" xmlns:xlink="http://www.w3.org/1999/xlink" x="0px" y="0px"
	 width="251.566px" height="166.062px" viewBox="0 0 251.566 166.062" enable-background="new 0 0 251.566 166.062"
	 xml:space="preserve">
<g>
	<g>
		<path d="M143.019,39.791H110.32l4.97-16.091h22.76L143.019,39.791z M114.641,36.603h24.058l-3-9.716h-18.058L114.641,36.603z"/>
	</g>
	<g>
		<path d="M151.207,66.302h-49.074l5.598-18.13h37.879L151.207,66.302z M106.453,63.115h40.433l-3.629-11.755h-33.174
			L106.453,63.115z"/>
	</g>
	<g>
		<path d="M135.461,15.317h-17.583l3.167-10.253c0.539-1.751,2.205-3.072,3.874-3.072h3.5c1.67,0,3.336,1.321,3.876,3.073
			L135.461,15.317z M122.2,12.13h8.941l-1.893-6.125c-0.152-0.494-0.664-0.824-0.83-0.825h-3.5
			c-0.166,0.001-0.676,0.332-0.828,0.823L122.2,12.13z"/>
	</g>
	<g>
		<path d="M171.293,103.812H82.046c-2.003,0-3.632-1.63-3.632-3.635v-0.629c0-2.002,1.629-3.632,3.632-3.632h10.077
			c0.419,0,0.994-0.424,1.118-0.824l6.302-20.407h54.251l6.303,20.407c0.124,0.401,0.699,0.825,1.118,0.825h10.077
			c2.003,0,3.632,1.629,3.632,3.632v0.629C174.925,102.181,173.296,103.812,171.293,103.812z M82.046,99.104
			c-0.241,0-0.444,0.203-0.444,0.444v0.629c0,0.243,0.204,0.447,0.444,0.447h89.247c0.241,0,0.444-0.204,0.444-0.447v-0.629
			c0-0.241-0.204-0.444-0.444-0.444h-10.077c-1.833,0-3.624-1.321-4.164-3.072l-5.609-18.159h-49.548l-5.608,18.159
			c-0.54,1.751-2.33,3.072-4.164,3.072H82.046z"/>
	</g>
</g>
<path d="M66.291,127.086l-3.262,10.307H60.12l-1.349-5.584l-1.409,5.584h-2.878l-3.324-10.307h3.972l1.361,5.047l1.296-5.047h2.991
	l1.278,5.043l1.427-5.043H66.291z"/>
<path d="M71.721,137.606c-1.709,0-3.068-0.532-4.074-1.597c-1.007-1.064-1.51-2.312-1.51-3.745c0-1.54,0.525-2.824,1.576-3.852
	c1.05-1.026,2.417-1.54,4.1-1.54c1.696,0,3.059,0.506,4.089,1.52c1.03,1.013,1.545,2.284,1.545,3.811
	c0,1.54-0.521,2.826-1.565,3.857C74.838,137.091,73.451,137.606,71.721,137.606z M71.782,135.153c0.628,0,1.012-0.326,1.15-0.978
	c0.139-0.652,0.208-1.332,0.208-2.042c0-0.966-0.098-1.662-0.294-2.088c-0.196-0.426-0.547-0.639-1.054-0.639
	c-0.466,0-0.807,0.22-1.024,0.659c-0.216,0.439-0.324,1.162-0.324,2.169c0,1.182,0.112,1.964,0.335,2.346
	C71.001,134.962,71.336,135.153,71.782,135.153z"/>
<path d="M82.371,137.393H78.5v-10.307h3.364v2.128c0.386-1.547,1.281-2.321,2.687-2.321c0.142,0,0.337,0.013,0.587,0.04v3.599
	c-0.283-0.068-0.537-0.102-0.76-0.102c-1.338,0-2.007,0.747-2.007,2.24V137.393z"/>
<path d="M97.142,127.086l-3.114,3.54l3.469,6.767h-4.181l-1.934-4.127l-1.102,1.29v2.837h-3.791v-13.834h3.791v5.584
	c0,0.155-0.01,0.777-0.031,1.864c0.244-0.344,0.49-0.658,0.741-0.942l2.587-2.979H97.142z"/>
<path d="M104.385,123.123v3.203h-4.044v-3.203H104.385z M104.385,127.086v10.307h-4.044v-10.307H104.385z"/>
<path d="M116.06,137.393h-4.044v-6.486c0-0.534-0.083-0.875-0.248-1.023c-0.166-0.149-0.374-0.224-0.624-0.224
	c-0.737,0-1.105,0.514-1.105,1.541v6.192h-4.043v-10.307h3.75v1.459c0.554-1.115,1.544-1.672,2.97-1.672
	c0.75,0,1.383,0.144,1.9,0.43c0.517,0.288,0.887,0.659,1.11,1.115c0.223,0.456,0.334,1.248,0.334,2.377V137.393z"/>
<path d="M123.181,140.647h-4.044v-13.561h3.72v1.459c0.52-1.115,1.49-1.672,2.909-1.672c1.229,0,2.193,0.478,2.889,1.434
	c0.696,0.957,1.044,2.259,1.044,3.907c0,1.648-0.357,2.96-1.07,3.933c-0.712,0.973-1.654,1.46-2.822,1.46
	c-1.149,0-2.024-0.439-2.625-1.318V140.647z M123.181,133.623c0,0.459,0.105,0.815,0.314,1.069c0.209,0.253,0.47,0.38,0.78,0.38
	c0.487,0,0.821-0.225,1.004-0.674c0.182-0.449,0.273-1.141,0.273-2.073c0-1.074-0.105-1.829-0.314-2.265s-0.523-0.654-0.942-0.654
	c-0.25,0-0.499,0.098-0.745,0.294c-0.247,0.196-0.37,0.516-0.37,0.962V133.623z"/>
<path d="M134.663,137.393h-3.871v-10.307h3.364v2.128c0.386-1.547,1.281-2.321,2.687-2.321c0.142,0,0.337,0.013,0.587,0.04v3.599
	c-0.283-0.068-0.538-0.102-0.76-0.102c-1.338,0-2.007,0.747-2.007,2.24V137.393z"/>
<path d="M143.225,137.606c-1.709,0-3.067-0.532-4.074-1.597c-1.006-1.064-1.51-2.312-1.51-3.745c0-1.54,0.526-2.824,1.576-3.852
	c1.05-1.026,2.417-1.54,4.1-1.54c1.695,0,3.059,0.506,4.089,1.52c1.03,1.013,1.545,2.284,1.545,3.811
	c0,1.54-0.521,2.826-1.565,3.857C146.341,137.091,144.955,137.606,143.225,137.606z M143.286,135.153
	c0.628,0,1.012-0.326,1.15-0.978c0.139-0.652,0.208-1.332,0.208-2.042c0-0.966-0.098-1.662-0.294-2.088
	c-0.196-0.426-0.547-0.639-1.054-0.639c-0.466,0-0.807,0.22-1.023,0.659c-0.217,0.439-0.325,1.162-0.325,2.169
	c0,1.182,0.111,1.964,0.335,2.346C142.505,134.962,142.84,135.153,143.286,135.153z"/>
<path d="M160.747,124.744l-0.102,2.767l-0.192-0.01c-0.365-0.02-0.625-0.031-0.781-0.031c-0.628,0-1.007,0.125-1.135,0.375
	c0.771,0.635,1.155,1.402,1.155,2.3c0,1.055-0.417,1.847-1.252,2.377c-0.834,0.531-1.968,0.796-3.4,0.796
	c-0.034,0-0.21-0.007-0.528-0.021c-0.297-0.013-0.452-0.019-0.465-0.019c-0.656,0-0.983,0.168-0.983,0.506
	c0,0.297,0.29,0.456,0.872,0.476l3.314,0.142c1.209,0.054,2.096,0.392,2.661,1.013c0.564,0.622,0.846,1.349,0.846,2.179
	c0,0.986-0.421,1.792-1.262,2.417c-0.841,0.625-2.478,0.938-4.911,0.938c-3.75,0-5.625-0.861-5.625-2.584
	c0-0.939,0.497-1.595,1.49-1.966c-0.642-0.453-0.963-0.989-0.963-1.612c0-1.013,0.659-1.777,1.977-2.291
	c-1.102-0.479-1.652-1.277-1.652-2.392c0-1.02,0.446-1.814,1.337-2.382c0.892-0.567,2.115-0.851,3.67-0.851
	c0.709,0,1.354,0.07,1.935,0.213c0.237-1.615,1.092-2.423,2.564-2.423C159.656,124.663,160.132,124.69,160.747,124.744z
	 M153.794,137.259c-0.149-0.006-0.297-0.01-0.446-0.01c-0.696,0-1.044,0.216-1.044,0.649c0,0.4,0.265,0.657,0.795,0.772
	c0.531,0.115,1.238,0.173,2.124,0.173c0.838,0,1.377-0.071,1.617-0.213s0.36-0.337,0.36-0.588c0-0.175-0.054-0.322-0.162-0.44
	c-0.108-0.118-0.365-0.188-0.77-0.208L153.794,137.259z M154.827,131.403c0.784,0,1.176-0.416,1.176-1.247
	c0-0.852-0.401-1.277-1.206-1.277c-0.797,0-1.196,0.433-1.196,1.296C153.601,130.995,154.01,131.403,154.827,131.403z"/>
<path d="M165.174,137.393h-3.872v-10.307h3.365v2.128c0.384-1.547,1.28-2.321,2.686-2.321c0.142,0,0.337,0.013,0.588,0.04v3.599
	c-0.284-0.068-0.537-0.102-0.761-0.102c-1.337,0-2.006,0.747-2.006,2.24V137.393z"/>
<path d="M175.509,133.694l3.771,0.253c-0.224,1.014-0.792,1.877-1.708,2.589c-0.915,0.713-2.154,1.07-3.715,1.07
	c-1.736,0-3.121-0.501-4.155-1.505c-1.033-1.003-1.55-2.249-1.55-3.735c0-1.541,0.51-2.841,1.53-3.902
	c1.02-1.06,2.381-1.591,4.084-1.591c1.648,0,2.982,0.5,3.999,1.5c1.017,1,1.525,2.361,1.525,4.084c0,0.143-0.003,0.338-0.01,0.589
	h-6.903c0.014,0.648,0.129,1.129,0.345,1.443c0.216,0.314,0.628,0.472,1.236,0.472C174.837,134.961,175.354,134.539,175.509,133.694
	z M175.236,131.018c-0.007-0.696-0.146-1.164-0.419-1.403c-0.272-0.24-0.611-0.36-1.015-0.36c-0.956,0-1.435,0.588-1.435,1.764
	H175.236z"/>
<path d="M179.44,134.474l3.192-0.436c0.184,0.743,0.906,1.115,2.169,1.115c1.048,0,1.572-0.203,1.572-0.608
	c0-0.176-0.102-0.313-0.305-0.41c-0.202-0.098-0.682-0.198-1.439-0.299c-2.094-0.291-3.402-0.745-3.922-1.363
	c-0.52-0.618-0.78-1.305-0.78-2.063c0-1.053,0.44-1.907,1.318-2.559c0.878-0.652,2.03-0.978,3.456-0.978
	c2.5,0,4.094,0.902,4.784,2.706l-3.061,0.578c-0.283-0.608-0.882-0.913-1.794-0.913c-0.432,0-0.753,0.06-0.967,0.178
	c-0.213,0.118-0.319,0.234-0.319,0.349c0,0.338,0.324,0.543,0.973,0.617c1.689,0.187,2.835,0.379,3.437,0.575
	c0.601,0.196,1.114,0.554,1.54,1.075c0.425,0.521,0.639,1.149,0.639,1.886c0,1.129-0.471,2.025-1.414,2.688
	c-0.943,0.663-2.242,0.995-3.897,0.995C181.828,137.606,180.102,136.563,179.44,134.474z"/>
<path d="M189.917,134.474l3.193-0.436c0.182,0.743,0.905,1.115,2.168,1.115c1.047,0,1.571-0.203,1.571-0.608
	c0-0.176-0.101-0.313-0.303-0.41c-0.203-0.098-0.683-0.198-1.439-0.299c-2.095-0.291-3.402-0.745-3.922-1.363
	c-0.52-0.618-0.781-1.305-0.781-2.063c0-1.053,0.439-1.907,1.318-2.559c0.878-0.652,2.03-0.978,3.456-0.978
	c2.5,0,4.095,0.902,4.784,2.706l-3.061,0.578c-0.284-0.608-0.882-0.913-1.794-0.913c-0.433,0-0.756,0.06-0.968,0.178
	c-0.213,0.118-0.32,0.234-0.32,0.349c0,0.338,0.324,0.543,0.974,0.617c1.689,0.187,2.834,0.379,3.436,0.575
	c0.601,0.196,1.114,0.554,1.54,1.075c0.426,0.521,0.638,1.149,0.638,1.886c0,1.129-0.47,2.025-1.414,2.688
	c-0.942,0.663-2.241,0.995-3.897,0.995C192.307,137.606,190.58,136.563,189.917,134.474z"/>
</svg>
